<svg xmlns="http://www.w3.org/2000/svg" xmlns:xlink="http://www.w3.org/1999/xlink" xmlns:lucid="lucid" width="1818.4" height="1300"><g transform="translate(-40 -20)" lucid:page-tab-id="0_0"><path d="M0 0h1870.4v1323.2H0z" fill="#fff"/><path d="M100 220c0 11.05-8.95 20-20 20s-20-8.95-20-20 8.95-20 20-20 20 8.95 20 20z" stroke="#000" stroke-width="2"/><path d="M102 220h38.5" stroke="#000" stroke-width="2" fill="none"/><path d="M102.03 221h-1.15l.12-.96-.03-1.04h1.06z"/><path d="M155.76 220l-14.26 4.64v-9.28z" stroke="#000" stroke-width="2"/><path d="M176 180c-8.84 0-16 7.16-16 16v48c0 8.84 7.16 16 16 16h128c8.84 0 16-7.16 16-16v-48c0-8.84-7.16-16-16-16z" stroke="#000" stroke-width="2" fill="#fff"/><use xlink:href="#a" transform="matrix(1,0,0,1,167.99999999999997,188) translate(31.725 14.4)"/><use xlink:href="#b" transform="matrix(1,0,0,1,167.99999999999997,188) translate(100.275 14.4)"/><use xlink:href="#c" transform="matrix(1,0,0,1,167.99999999999997,188) translate(6.074999999999989 36)"/><use xlink:href="#d" transform="matrix(1,0,0,1,167.99999999999997,188) translate(70.02499999999999 36)"/><use xlink:href="#e" transform="matrix(1,0,0,1,167.99999999999997,188) translate(54.5 57.6)"/><path d="M322 220h38.5" stroke="#000" stroke-width="2" fill="none"/><path d="M322.03 221H321v-2h1.03z"/><path d="M375.76 220l-14.26 4.64v-9.28z" stroke="#000" stroke-width="2"/><path d="M396 180c-8.84 0-16 7.16-16 16v48c0 8.84 7.16 16 16 16h128c8.84 0 16-7.16 16-16v-48c0-8.84-7.16-16-16-16z" stroke="#000" stroke-width="2" fill="#fff"/><use xlink:href="#f" transform="matrix(1,0,0,1,388,188) translate(59.5 24.799999999999997)"/><use xlink:href="#g" transform="matrix(1,0,0,1,388,188) translate(2.1500000000000057 46.4)"/><path d="M542 220h38.08" stroke="#000" stroke-width="2" fill="none"/><path d="M542.03 221H541v-2h1.03z"/><path d="M595.35 220l-14.27 4.64v-9.28z" stroke="#000" stroke-width="2"/><path d="M620 200l20 20-20 20-20-20z" stroke="#000" stroke-width="2" fill="#fff"/><path d="M620 197.6V80h160.5" stroke="#000" stroke-width="2" fill="none"/><path d="M621 199.6l-1-1-1 1v-2.04h2z"/><path d="M795.76 80l-14.26 4.64v-9.28z" stroke="#000" stroke-width="2"/><use xlink:href="#h" transform="matrix(1,0,0,1,620.0614138815268,54.400000000000006) translate(0 14.4)"/><use xlink:href="#i" transform="matrix(1,0,0,1,620.0614138815268,54.400000000000006) translate(63.900000000000006 14.4)"/><path d="M816 40c-8.84 0-16 7.16-16 16v48c0 8.84 7.16 16 16 16h128c8.84 0 16-7.16 16-16V56c0-8.84-7.16-16-16-16z" stroke="#000" stroke-width="2" fill="#fff"/><path d="M818 70v20m-10 0V80h20v10" stroke="#000" stroke-width="2" fill="none"/><use xlink:href="#j" transform="matrix(1,0,0,1,837.9999999999999,48) translate(0.07499999999999574 24.799999999999997)"/><use xlink:href="#k" transform="matrix(1,0,0,1,837.9999999999999,48) translate(55.025 24.799999999999997)"/><use xlink:href="#l" transform="matrix(1,0,0,1,837.9999999999999,48) translate(35 46.4)"/><path d="M962 80h58.5" stroke="#000" stroke-width="2" fill="none"/><path d="M962.03 81H961v-2h1.03z"/><path d="M1035.76 80l-14.26 4.64v-9.28z" stroke="#000" stroke-width="2"/><path d="M1080 80c0 11.05-8.95 20-20 20s-20-8.95-20-20 8.95-20 20-20 20 8.95 20 20z" stroke="#000" stroke-width="2" fill="#fff"/><path d="M1072 80c0 6.63-5.37 12-12 12s-12-5.37-12-12 5.37-12 12-12 12 5.37 12 12z" stroke="#000" stroke-width="2"/><path d="M642.4 220h98.1" stroke="#000" stroke-width="2" fill="none"/><path d="M642.44 221h-2.03l1-1-1-1h2.04z"/><path d="M755.76 220l-14.26 4.64v-9.28z" stroke="#000" stroke-width="2"/><use xlink:href="#m" transform="matrix(1,0,0,1,658.2071067811866,194.4) translate(0 14.4)"/><use xlink:href="#i" transform="matrix(1,0,0,1,658.2071067811866,194.4) translate(40 14.4)"/><path d="M776 180c-8.84 0-16 7.16-16 16v48c0 8.84 7.16 16 16 16h128c8.84 0 16-7.16 16-16v-48c0-8.84-7.16-16-16-16z" stroke="#000" stroke-width="2" fill="#fff"/><use xlink:href="#n" transform="matrix(1,0,0,1,768,188) translate(9 14.4)"/><use xlink:href="#o" transform="matrix(1,0,0,1,768,188) translate(39 14.4)"/><use xlink:href="#b" transform="matrix(1,0,0,1,768,188) translate(123 14.4)"/><use xlink:href="#p" transform="matrix(1,0,0,1,768,188) translate(6.625 36)"/><use xlink:href="#q" transform="matrix(1,0,0,1,768,188) translate(101.47500000000001 36)"/><use xlink:href="#r" transform="matrix(1,0,0,1,768,188) translate(59.525 57.6)"/><path d="M922 220h58.5" stroke="#000" stroke-width="2" fill="none"/><path d="M922.03 221H921v-2h1.03z"/><path d="M995.76 220l-14.26 4.64v-9.28z" stroke="#000" stroke-width="2"/><path d="M1016 180c-8.84 0-16 7.16-16 16v48c0 8.84 7.16 16 16 16h128c8.84 0 16-7.16 16-16v-48c0-8.84-7.16-16-16-16z" stroke="#000" stroke-width="2" fill="#fff"/><path d="M1018 210v20m-10 0v-10h20v10" stroke="#000" stroke-width="2" fill="none"/><use xlink:href="#n" transform="matrix(1,0,0,1,1038,188) translate(2.049999999999997 35.6)"/><use xlink:href="#s" transform="matrix(1,0,0,1,1038,188) translate(32.05 35.6)"/><use xlink:href="#t" transform="matrix(1,0,0,1,1038,188) translate(71.05 35.6)"/><path d="M1162 220h38.5" stroke="#000" stroke-width="2" fill="none"/><path d="M1162.03 221H1161v-2h1.03z"/><path d="M1215.76 220l-14.26 4.64v-9.28z" stroke="#000" stroke-width="2"/><path d="M1236 180c-8.84 0-16 7.16-16 16v48c0 8.84 7.16 16 16 16h128c8.84 0 16-7.16 16-16v-48c0-8.84-7.16-16-16-16z" stroke="#000" stroke-width="2" fill="#fff"/><use xlink:href="#u" transform="matrix(1,0,0,1,1228,188) translate(20.049999999999997 24.799999999999997)"/><use xlink:href="#v" transform="matrix(1,0,0,1,1228,188) translate(60 24.799999999999997)"/><use xlink:href="#w" transform="matrix(1,0,0,1,1228,188) translate(108.95 24.799999999999997)"/><use xlink:href="#x" transform="matrix(1,0,0,1,1228,188) translate(5.474999999999994 46.4)"/><path d="M1382 220h39v139H790v21.5" stroke="#000" stroke-width="2" fill="none"/><path d="M1382.03 221H1381v-2h1.03z"/><path d="M790 395.76l-4.64-14.26h9.28z" stroke="#000" stroke-width="2"/><use xlink:href="#y" transform="matrix(1,0,0,1,798,378.20000000000033) translate(0 14.4)"/><path d="M80 405c0-2.76 2.24-5 5-5h1330c2.76 0 5 2.24 5 5v230c0 2.76-2.24 5-5 5H85c-2.76 0-5-2.24-5-5z" fill="none"/><path d="M97.02 400h8m8.02 0h8m8.03 0h8m8.02 0h8m8 0h8.03m8 0h8.02m8 0h8.02m8.02 0h8m8 0h8.02m8 0h8.03m8 0h8.02m8 0h8.03m8 0h8.02m8 0h8.02m8.02 0h8m8.02 0h8m8.02 0h8.02m8 0h8.02m8 0h8.02m8.02 0h8m8.02 0h8m8.02 0h8.02m8 0h8.02m8 0h8.02m8.02 0h8m8.02 0h8m8.02 0h8.02m8 0h8.02m8 0h8.02m8.02 0h8m8.02 0h8m8.03 0h8m8.02 0h8m8 0h8.03m8 0h8.02m8 0h8.02m8.02 0h8m8 0h8.02m8 0h8.03m8 0h8.02m8 0H746m8 0h8.02m8 0h8.02m8 0h8.03m8 0h8.02m8 0h8m8.03 0h8m8.02 0h8m8.02 0h8.02m8 0h8m8.02 0h8m8.03 0h8m8.02 0h8m8.03 0h8m8.02 0h8m8.02 0h8.02m8 0h8.02m8 0h8.02m8.02 0h8m8.02 0h8m8.02 0h8.02m8 0h8.02m8 0h8.02m8.02 0h8m8.02 0h8m8.02 0h8.02m8 0h8.02m8 0h8.02m8.02 0h8m8.02 0h8m8.02 0h8.02m8 0h8.02m8 0h8.03m8 0h8.02m8 0h8m8.03 0h8m8.02 0h8m8.02 0h8.02m8 0h8m8.02 0h8m8.03 0h8m8.02 0h8m8.02 0h4l2.95.96 1.8 2.46.25 1.58v4.1m0 8.22v8.22m0 8.2v8.22m0 8.22v8.2m0 8.23v8.22m0 8.22v8.2m0 8.22v8.22m0 8.2v8.23m0 8.22v8.22m0 8.2v8.22m0 8.22v8.2m0 8.23v8.22m0 8.22v8.2m0 8.22v8.22m0 8.2V635l-.96 2.95-2.46 1.8-1.58.25h-4m-8.02 0h-8m-8.02 0h-8m-8.03 0h-8m-8.02 0h-8m-8 0h-8.03m-8 0h-8.02m-8 0h-8.02m-8.02 0h-8m-8 0h-8.02m-8 0h-8.03m-8 0h-8.02m-8 0h-8.03m-8 0h-8.02m-8 0h-8.02m-8.02 0h-8m-8.02 0h-8m-8.02 0h-8.02m-8 0h-8.02m-8 0h-8.02m-8.02 0h-8m-8.02 0h-8m-8.02 0h-8.02m-8 0h-8.02m-8 0h-8.02m-8.02 0h-8m-8.02 0h-8m-8.02 0h-8.02m-8 0h-8.02m-8 0h-8.02m-8.02 0h-8m-8.02 0h-8m-8.03 0h-8m-8.02 0h-8m-8 0h-8.03m-8 0h-8.02m-8 0h-8.02m-8.02 0h-8m-8 0h-8.02m-8 0h-8.03m-8 0h-8.02m-8 0H754m-8 0h-8.02m-8 0h-8.02m-8 0h-8.03m-8 0h-8.02m-8 0h-8m-8.03 0h-8m-8.02 0h-8m-8.02 0h-8.02m-8 0h-8m-8.02 0h-8m-8.03 0h-8m-8.02 0h-8m-8.03 0h-8m-8.02 0h-8m-8.02 0h-8.02m-8 0h-8.02m-8 0h-8.02m-8.02 0h-8m-8.02 0h-8m-8.02 0h-8.02m-8 0h-8.02m-8 0h-8.02m-8.02 0h-8m-8.02 0h-8m-8.02 0h-8.02m-8 0h-8.02m-8 0h-8.02m-8.02 0h-8m-8.02 0h-8m-8.02 0h-8.02m-8 0h-8.02m-8 0h-8.03m-8 0h-8.02m-8 0h-8m-8.03 0h-8m-8.02 0h-8m-8.02 0h-8.02m-8 0h-8m-8.02 0h-8m-8.03 0h-8m-8.02 0h-8M89 640h-4l-2.95-.96-1.8-2.46L80 635v-4.1m0-8.22v-8.22m0-8.2v-8.22m0-8.22v-8.2m0-8.23v-8.22m0-8.22v-8.2m0-8.22v-8.22m0-8.2v-8.23m0-8.22v-8.22m0-8.2v-8.22m0-8.22v-8.2m0-8.23v-8.22m0-8.22v-8.2m0-8.22v-8.22m0-8.2V405l.96-2.95 2.46-1.8L85 400h4" stroke="#000" stroke-width="2" fill="none"/><use xlink:href="#z" transform="matrix(1,0,0,1,88.00000000000011,408) translate(0 15.6)"/><use xlink:href="#A" transform="matrix(1,0,0,1,88.00000000000011,408) translate(26 15.6)"/><use xlink:href="#B" transform="matrix(1,0,0,1,88.00000000000011,408) translate(93.85 15.6)"/><path d="M750 400h80v20h-80zM770 400v20m20-20v20m20-20v20" stroke="#000" stroke-width="2" fill="#fff"/><path d="M790 422v8.5" stroke="#000" stroke-width="2" fill="none"/><path d="M791 422.03h-2V421h2z"/><path d="M790 445.76l-4.64-14.26h9.28z" stroke="#000" stroke-width="2"/><path d="M252 450c-17.67 0-32 14.33-32 32v96c0 17.67 14.33 32 32 32h1076c17.67 0 32-14.33 32-32v-96c0-17.67-14.33-32-32-32z" stroke="#000" stroke-width="2" fill="#fff"/><path d="M238 520v20m-10 0v-10h20v10" stroke="#000" stroke-width="2" fill="none"/><use xlink:href="#C" transform="matrix(1,0,0,1,258,458) translate(455.1 14.4)"/><use xlink:href="#D" transform="matrix(1,0,0,1,258,458) translate(485.1 14.4)"/><use xlink:href="#E" transform="matrix(1,0,0,1,258,458) translate(521.0500000000001 14.4)"/><use xlink:href="#F" transform="matrix(1,0,0,1,258,458) translate(568.95 14.4)"/><use xlink:href="#l" transform="matrix(1,0,0,1,258,458) translate(594.9 14.4)"/><path d="M320 540c0 11.05-8.95 20-20 20s-20-8.95-20-20 8.95-20 20-20 20 8.95 20 20z" stroke="#000" stroke-width="2"/><path d="M396 500c-8.84 0-16 7.16-16 16v48c0 8.84 7.16 16 16 16h128c8.84 0 16-7.16 16-16v-48c0-8.84-7.16-16-16-16z" stroke="#000" stroke-width="2" fill="#fff"/><use xlink:href="#n" transform="matrix(1,0,0,1,388,508) translate(2.125 35.6)"/><use xlink:href="#G" transform="matrix(1,0,0,1,388,508) translate(32.125 35.6)"/><path d="M606 500c-8.84 0-16 7.16-16 16v48c0 8.84 7.16 16 16 16h128c8.84 0 16-7.16 16-16v-48c0-8.84-7.16-16-16-16z" stroke="#000" stroke-width="2" fill="#fff"/><use xlink:href="#n" transform="matrix(1,0,0,1,598,508) translate(13.899999999999999 35.6)"/><use xlink:href="#H" transform="matrix(1,0,0,1,598,508) translate(43.9 35.6)"/><path d="M836 500c-8.84 0-16 7.16-16 16v48c0 8.84 7.16 16 16 16h348c8.84 0 16-7.16 16-16v-48c0-8.84-7.16-16-16-16z" stroke="#000" stroke-width="2" fill="#fff"/><path d="M838 530v20m-10 0v-10h20v10" stroke="#000" stroke-width="2" fill="none"/><use xlink:href="#I" transform="matrix(1,0,0,1,858,508) translate(13.799999999999983 24.799999999999997)"/><use xlink:href="#J" transform="matrix(1,0,0,1,858,508) translate(89.69999999999999 24.799999999999997)"/><use xlink:href="#K" transform="matrix(1,0,0,1,858,508) translate(168.54999999999998 24.799999999999997)"/><use xlink:href="#L" transform="matrix(1,0,0,1,858,508) translate(205.45 24.799999999999997)"/><use xlink:href="#M" transform="matrix(1,0,0,1,858,508) translate(44.474999999999994 46.4)"/><use xlink:href="#N" transform="matrix(1,0,0,1,858,508) translate(140.675 46.4)"/><use xlink:href="#O" transform="matrix(1,0,0,1,858,508) translate(186.57500000000002 46.4)"/><use xlink:href="#P" transform="matrix(1,0,0,1,858,508) translate(221.57500000000002 46.4)"/><path d="M322 540h38.5" stroke="#000" stroke-width="2" fill="none"/><path d="M322.03 541h-1.15l.12-.96-.03-1.04h1.06z"/><path d="M375.76 540l-14.26 4.64v-9.28z" stroke="#000" stroke-width="2"/><path d="M542 540h28.5" stroke="#000" stroke-width="2" fill="none"/><path d="M542.03 541H541v-2h1.03z"/><path d="M585.76 540l-14.26 4.64v-9.28z" stroke="#000" stroke-width="2"/><path d="M752 540h48.5" stroke="#000" stroke-width="2" fill="none"/><path d="M752.03 541H751v-2h1.03z"/><path d="M815.76 540l-14.26 4.64v-9.28z" stroke="#000" stroke-width="2"/><path d="M1310 540c0 11.05-8.95 20-20 20s-20-8.95-20-20 8.95-20 20-20 20 8.95 20 20z" stroke="#000" stroke-width="2" fill="#fff"/><path d="M1302 540c0 6.63-5.37 12-12 12s-12-5.37-12-12 5.37-12 12-12 12 5.37 12 12z" stroke="#000" stroke-width="2"/><path d="M1202 540h48.5" stroke="#000" stroke-width="2" fill="none"/><path d="M1202.03 541H1201v-2h1.03z"/><path d="M1265.76 540l-14.26 4.64v-9.28z" stroke="#000" stroke-width="2"/><path d="M80 725c0-2.76 2.24-5 5-5h1748.4c2.76 0 5 2.24 5 5v470c0 2.76-2.24 5-5 5H85c-2.76 0-5-2.24-5-5z" fill="none"/><path d="M97.03 720h8.02m8.02 0h8.02m8 0h8.03m8.02 0h8.02m8.02 0h8m8.03 0h8.02m8.02 0h8.02m8 0h8.03m8.02 0h8.02m8.02 0h8m8.03 0h8.02m8.02 0h8.02m8 0h8.03m8.03 0h8.02m8.02 0h8.02m8.02 0h8.02m8.02 0h8.02m8.02 0h8.02m8.02 0h8.02m8.02 0h8.02m8.02 0h8.02m8.02 0h8.02m8.02 0h8.02m8.02 0h8.02m8.02 0h8.02m8.02 0h8.02m8.02 0h8.02m8.02 0h8.02m8.02 0h8.02m8.02 0h8.02m8.02 0h8.02m8.02 0h8.02m8.02 0h8.02m8.02 0h8.02m8.02 0h8.02m8.02 0h8.02m8.02 0h8.02m8.02 0h8.02m8.02 0h8.02m8.02 0h8.02m8.02 0h8.03m8.02 0h8m8.03 0h8.02m8.02 0h8.02m8 0h8.03m8.02 0h8.02m8.02 0h8m8.03 0h8.02m8.02 0H875m8 0h8.03m8.02 0h8.02m8.02 0h8m8.03 0h8.02m8.02 0h8.02m8 0h8.03m8.02 0h8.02m8.02 0h8m8.03 0h8.02m8.02 0h8.02m8 0h8.03m8.02 0h8.02m8.02 0h8m8.03 0h8.02m8.02 0h8.02m8 0h8.03m8.02 0h8.02m8.02 0h8m8.03 0h8.03m8.02 0h8.02m8.02 0h8.02m8.02 0h8.02m8.02 0h8.02m8.02 0h8.02m8.02 0h8.02m8.02 0h8.02m8.02 0h8.02m8.02 0h8.02m8.02 0h8.02m8.02 0h8.02m8.02 0h8.02m8.02 0h8.02m8.02 0h8.02m8.02 0h8.02m8.02 0h8.02m8.02 0h8.02m8.02 0h8.02m8.02 0h8.02m8.02 0h8.02m8.02 0h8.02m8.02 0h8.02m8.02 0h8.02m8.02 0h8.02m8.02 0h8.02m8.02 0h8.02m8.02 0h8.02m8.03 0h8.02m8 0h8.03m8.02 0h8.02m8.02 0h8m8.03 0h8.02m8.02 0h8.02m8 0h8.03m8.02 0h8.02m8.02 0h8m8.03 0h8.02m8.02 0h8.02m8 0h8.03m8.02 0h8.02m8.02 0h4l2.95.96 1.8 2.46.25 1.58v4.05m0 8.1v8.1m0 8.1v8.12m0 8.1v8.1m0 8.1v8.1m0 8.1v8.12m0 8.1v8.1m0 8.1v8.1m0 8.1v8.1m0 8.1v8.1m0 8.12v8.1m0 8.1v8.1m0 8.1v8.1m0 8.12v8.1m0 8.1v8.1m0 8.1v8.12m0 8.1v8.1m0 8.1v8.1m0 8.1v8.12m0 8.1v8.1m0 8.1v8.1m0 8.1v8.12m0 8.1v8.1m0 8.1v8.1m0 8.1v8.12m0 8.1v8.1m0 8.1v8.1m0 8.1v8.12m0 8.1v8.1m0 8.1v4.06l-.96 2.95-2.46 1.8-1.58.25h-4m-8.03 0h-8.02m-8.02 0h-8.02m-8 0h-8.03m-8.02 0h-8.02m-8.02 0h-8m-8.03 0h-8.02m-8.02 0h-8.02m-8 0h-8.03m-8.02 0h-8.02m-8.02 0h-8m-8.03 0h-8.02m-8.02 0h-8.02m-8 0h-8.03m-8.03 0h-8.02m-8.02 0h-8.02m-8.02 0h-8.02m-8.02 0h-8.02m-8.02 0h-8.02m-8.02 0h-8.02m-8.02 0h-8.02m-8.02 0h-8.02m-8.02 0h-8.02m-8.02 0h-8.02m-8.02 0h-8.02m-8.02 0h-8.02m-8.02 0h-8.02m-8.02 0h-8.02m-8.02 0h-8.02m-8.02 0h-8.02m-8.02 0h-8.02m-8.02 0h-8.02m-8.02 0h-8.02m-8.02 0h-8.02m-8.02 0h-8.02m-8.02 0h-8.02m-8.02 0h-8.02m-8.02 0h-8.02m-8.02 0h-8.02m-8.02 0h-8.02m-8.02 0h-8.02m-8.02 0h-8.03m-8.02 0h-8m-8.03 0h-8.02m-8.02 0h-8.02m-8 0h-8.03m-8.02 0h-8.02m-8.02 0h-8m-8.03 0h-8.02m-8.02 0h-8.02m-8 0h-8.03m-8.02 0h-8.02m-8.02 0h-8m-8.03 0h-8.02m-8.02 0h-8.02m-8 0h-8.03m-8.02 0h-8.02m-8.02 0h-8m-8.03 0h-8.02m-8.02 0H883m-8 0h-8.03m-8.02 0h-8.02m-8.02 0h-8m-8.03 0h-8.02m-8.02 0h-8.02m-8 0h-8.03m-8.02 0h-8.02m-8.02 0h-8m-8.03 0h-8.03m-8.02 0h-8.02m-8.02 0h-8.02m-8.02 0h-8.02m-8.02 0h-8.02m-8.02 0h-8.02m-8.02 0h-8.02m-8.02 0h-8.02m-8.02 0h-8.02m-8.02 0h-8.02m-8.02 0h-8.02m-8.02 0h-8.02m-8.02 0h-8.02m-8.02 0h-8.02m-8.02 0h-8.02m-8.02 0h-8.02m-8.02 0H482m-8.02 0h-8.02m-8.02 0h-8.02m-8.02 0h-8.02m-8.02 0h-8.02m-8.02 0h-8.02m-8.02 0h-8.02m-8.02 0h-8.02m-8.02 0h-8.02m-8.02 0h-8.02m-8.02 0h-8.02m-8.02 0h-8.02m-8.03 0h-8.02m-8 0h-8.03m-8.02 0h-8.02m-8.02 0h-8m-8.03 0h-8.02m-8.02 0h-8.02m-8 0h-8.03m-8.02 0h-8.02m-8.02 0h-8m-8.03 0h-8.02m-8.02 0h-8.02m-8 0h-8.03m-8.02 0h-8.02m-8.02 0h-4l-2.95-.96-1.8-2.46L80 1195v-4.05m0-8.1v-8.1m0-8.1v-8.12m0-8.1v-8.1m0-8.1v-8.1m0-8.1v-8.12m0-8.1v-8.1m0-8.1v-8.1m0-8.1v-8.1m0-8.1v-8.1m0-8.12v-8.1m0-8.1v-8.1m0-8.1v-8.1m0-8.12v-8.1m0-8.1v-8.1m0-8.1v-8.12m0-8.1v-8.1m0-8.1v-8.1m0-8.1v-8.12m0-8.1v-8.1m0-8.1v-8.1m0-8.1v-8.12m0-8.1v-8.1m0-8.1v-8.1m0-8.1v-8.12m0-8.1v-8.1m0-8.1v-8.1m0-8.1v-8.12m0-8.1v-8.1m0-8.1V725l.96-2.95 2.46-1.8L85 720h4" stroke="#000" stroke-width="2" fill="none"/><use xlink:href="#z" transform="matrix(1,0,0,1,88.00000000000011,728) translate(0 15.6)"/><use xlink:href="#A" transform="matrix(1,0,0,1,88.00000000000011,728) translate(26 15.6)"/><use xlink:href="#B" transform="matrix(1,0,0,1,88.00000000000011,728) translate(93.85 15.6)"/><path d="M260 720h80v20h-80zM280 720v20m20-20v20m20-20v20M300 840l20 20-20 20-20-20z" stroke="#000" stroke-width="2" fill="#fff"/><path d="M300 742v78.08" stroke="#000" stroke-width="2" fill="none"/><path d="M301 742.03h-2V741h2z"/><path d="M300 835.35l-4.64-14.27h9.28z" stroke="#000" stroke-width="2"/><path d="M116 1000c-8.84 0-16 7.16-16 16v48c0 8.84 7.16 16 16 16h128c8.84 0 16-7.16 16-16v-48c0-8.84-7.16-16-16-16z" stroke="#000" stroke-width="2" fill="#fff"/><use xlink:href="#Q" transform="matrix(1,0,0,1,108,1008) translate(32.5 14.4)"/><use xlink:href="#R" transform="matrix(1,0,0,1,108,1008) translate(67.5 14.4)"/><use xlink:href="#S" transform="matrix(1,0,0,1,108,1008) translate(96.5 14.4)"/><use xlink:href="#T" transform="matrix(1,0,0,1,108,1008) translate(22.424999999999997 36)"/><use xlink:href="#w" transform="matrix(1,0,0,1,108,1008) translate(106.575 36)"/><use xlink:href="#U" transform="matrix(1,0,0,1,108,1008) translate(36.074999999999996 57.6)"/><path d="M277.6 860H180v120.5" stroke="#000" stroke-width="2" fill="none"/><path d="M278.6 860l1 1h-2.04v-2h2.03z"/><path d="M180 995.76l-4.64-14.26h9.28z" stroke="#000" stroke-width="2"/><use xlink:href="#V" transform="matrix(1,0,0,1,150.802716542141,834.4000000000001) translate(0 14.4)"/><use xlink:href="#W" transform="matrix(1,0,0,1,150.802716542141,834.4000000000001) translate(33.9 14.4)"/><path d="M750 640h80v20h-80zM770 640v20m20-20v20m20-20v20" stroke="#000" stroke-width="2" fill="#fff"/><path d="M790 612v8.5" stroke="#000" stroke-width="2" fill="none"/><path d="M791 612.03h-2V611h2z"/><path d="M790 635.76l-4.64-14.26h9.28z" stroke="#000" stroke-width="2"/><path d="M790 662v28H300v10.5" stroke="#000" stroke-width="2" fill="none"/><path d="M791 662.03h-2V661h2z"/><path d="M300 715.76l-4.64-14.26h9.28z" stroke="#000" stroke-width="2"/><use xlink:href="#X" transform="matrix(1,0,0,1,295.4746999801358,664.4000000000001) translate(0 14.4)"/><use xlink:href="#Y" transform="matrix(1,0,0,1,295.4746999801358,664.4000000000001) translate(32 14.4)"/><use xlink:href="#Z" transform="matrix(1,0,0,1,295.4746999801358,664.4000000000001) translate(52 14.4)"/><path d="M440 745c0-2.76 2.24-5 5-5h1330c2.76 0 5 2.24 5 5v270c0 2.76-2.24 5-5 5H445c-2.76 0-5-2.24-5-5z" fill="none"/><path d="M457.02 740h8m8.02 0h8m8.03 0h8m8.02 0h8m8 0h8.03m8 0h8.02m8 0h8.02m8.02 0h8m8 0h8.02m8 0h8.03m8 0h8.02m8 0h8.03m8 0h8.02m8 0h8.02m8.02 0h8m8.02 0h8m8.02 0h8.02m8 0h8.02m8 0h8.02m8.02 0h8m8.02 0h8m8.02 0h8.02m8 0h8.02m8 0h8.02m8.02 0h8m8.02 0h8m8.02 0h8.02m8 0h8.02m8 0h8.02m8.02 0h8m8.02 0h8m8.03 0h8m8.02 0h8m8 0h8.03m8 0h8.02m8 0h8.02m8.02 0h8m8 0h8.02m8 0h8.03m8 0h8.02m8 0h8.02m8 0h8.02m8 0h8.02m8 0h8.03m8 0h8.02m8 0h8m8.03 0h8m8.02 0h8m8.02 0h8.02m8 0h8m8.02 0h8m8.03 0h8m8.02 0h8m8.03 0h8m8.02 0h8m8.02 0h8.02m8 0h8.02m8 0h8.02m8.02 0h8m8.02 0h8m8.02 0h8.02m8 0h8.02m8 0h8.02m8.02 0h8m8.02 0h8m8.02 0h8.02m8 0h8.02m8 0h8.02m8.02 0h8m8.02 0h8m8.02 0h8.02m8 0h8.02m8 0h8.03m8 0h8.02m8 0h8m8.03 0h8m8.02 0h8m8.02 0h8.02m8 0h8m8.02 0h8m8.03 0h8m8.02 0h8m8.02 0h4l2.95.96 1.8 2.46.25 1.58v3.97m0 7.94v7.95m0 7.94v7.94m0 7.94v7.94m0 7.94v7.94m0 7.94v7.94m0 7.94v7.94m0 7.95v7.95m0 7.94v7.93m0 7.94v7.94m0 7.95v7.94m0 7.94v7.94m0 7.94v7.94m0 7.94v7.94m0 7.94v7.94m0 7.94v7.95m0 7.95v7.94m0 7.93v3.97l-.96 2.95-2.46 1.8-1.58.25h-4m-8.02 0h-8m-8.02 0h-8m-8.03 0h-8m-8.02 0h-8m-8 0h-8.03m-8 0h-8.02m-8 0h-8.02m-8.02 0h-8m-8 0h-8.02m-8 0h-8.03m-8 0h-8.02m-8 0h-8.03m-8 0h-8.02m-8 0h-8.02m-8.02 0h-8m-8.02 0h-8m-8.02 0h-8.02m-8 0h-8.02m-8 0h-8.02m-8.02 0h-8m-8.02 0h-8m-8.02 0h-8.02m-8 0h-8.02m-8 0h-8.02m-8.02 0h-8m-8.02 0h-8m-8.02 0h-8.02m-8 0h-8.02m-8 0h-8.02m-8.02 0h-8m-8.02 0h-8m-8.03 0h-8m-8.02 0h-8m-8 0h-8.03m-8 0h-8.02m-8 0h-8.02m-8.02 0h-8m-8 0h-8.02m-8 0h-8.03m-8 0h-8.02m-8 0H1114m-8 0h-8.02m-8 0h-8.02m-8 0h-8.03m-8 0h-8.02m-8 0h-8m-8.03 0h-8m-8.02 0h-8m-8.02 0h-8.02m-8 0h-8m-8.02 0h-8m-8.03 0h-8m-8.02 0h-8m-8.03 0h-8m-8.02 0h-8m-8.02 0h-8.02m-8 0h-8.02m-8 0h-8.02m-8.02 0h-8m-8.02 0h-8m-8.02 0h-8.02m-8 0h-8.02m-8 0h-8.02m-8.02 0h-8m-8.02 0h-8m-8.02 0h-8.02m-8 0h-8.02m-8 0h-8.02m-8.02 0h-8m-8.02 0h-8m-8.02 0h-8.02m-8 0h-8.02m-8 0h-8.03m-8 0h-8.02m-8 0h-8m-8.03 0h-8m-8.02 0h-8m-8.02 0h-8.02m-8 0h-8m-8.02 0h-8m-8.03 0h-8m-8.02 0h-8m-8.02 0h-4l-2.95-.96-1.8-2.46-.25-1.58v-3.97m0-7.94v-7.95m0-7.94v-7.94m0-7.94v-7.94m0-7.94v-7.94m0-7.94v-7.94m0-7.94v-7.94m0-7.95v-7.95m0-7.94v-7.93m0-7.94v-7.94m0-7.95v-7.94m0-7.94v-7.94m0-7.94v-7.94m0-7.94v-7.94m0-7.94v-7.94m0-7.94v-7.95m0-7.95v-7.94m0-7.93V745l.96-2.95 2.46-1.8L445 740h4" stroke="#000" stroke-width="2" fill="none"/><use xlink:href="#z" transform="matrix(1,0,0,1,448,748) translate(0 15.6)"/><use xlink:href="#A" transform="matrix(1,0,0,1,448,748) translate(26 15.6)"/><use xlink:href="#B" transform="matrix(1,0,0,1,448,748) translate(93.85 15.6)"/><path d="M322.4 860h98.1" stroke="#000" stroke-width="2" fill="none"/><path d="M322.44 861h-2.03l1-1-1-1h2.04z"/><path d="M435.76 860l-14.26 4.64v-9.28z" stroke="#000" stroke-width="2"/><use xlink:href="#aa" transform="matrix(1,0,0,1,333.096338536587,834.4000000000001) translate(0 14.4)"/><use xlink:href="#ab" transform="matrix(1,0,0,1,360.02544200108605,864) translate(0 14.4)"/><g stroke="#000" stroke-width="2" fill="#fff"><path d="M440 900v-80h20v80zM440 880h20m-20-20h20m-20-20h20"/></g><path d="M462 860h18.08" stroke="#000" stroke-width="2" fill="none"/><path d="M462.03 861H461v-2h1.03z"/><path d="M495.35 860l-14.27 4.64v-9.28z" stroke="#000" stroke-width="2"/><path d="M520 840l20 20-20 20-20-20z" stroke="#000" stroke-width="2" fill="#fff"/><path d="M520 837.6V800h260.5" stroke="#000" stroke-width="2" fill="none"/><path d="M521 839.6l-1-1-1 1v-2.04h2z"/><path d="M795.76 800l-14.26 4.64v-9.28z" stroke="#000" stroke-width="2"/><use xlink:href="#ac" transform="matrix(1,0,0,1,522.0475787937206,774.4) translate(0 14.4)"/><use xlink:href="#ad" transform="matrix(1,0,0,1,522.0475787937206,774.4) translate(75.15 14.4)"/><use xlink:href="#ae" transform="matrix(1,0,0,1,522.0475787937206,774.4) translate(90.65 14.4)"/><use xlink:href="#af" transform="matrix(1,0,0,1,522.0475787937206,774.4) translate(124.65 14.4)"/><path d="M840 800c0 11.05-8.95 20-20 20s-20-8.95-20-20 8.95-20 20-20 20 8.95 20 20z" stroke="#000" stroke-width="2" fill="#fff"/><path d="M805.86 785.86l28.28 28.28m0-28.28l-28.28 28.28M520 882.4V920h60.5" stroke="#000" stroke-width="2" fill="none"/><path d="M521 882.44h-2v-2.03l1 1 1-1z"/><path d="M595.76 920l-14.26 4.64v-9.28z" stroke="#000" stroke-width="2"/><g><use xlink:href="#aa" transform="matrix(1,0,0,1,533.8526847691934,894.4000000000001) translate(0 14.4)"/></g><path d="M616 880c-8.84 0-16 7.16-16 16v48c0 8.84 7.16 16 16 16h368c8.84 0 16-7.16 16-16v-48c0-8.84-7.16-16-16-16z" stroke="#000" stroke-width="2" fill="#fff"/><g><use xlink:href="#ag" transform="matrix(1,0,0,1,608,888) translate(139.575 24.799999999999997)"/><use xlink:href="#ah" transform="matrix(1,0,0,1,608,888) translate(194.52499999999998 24.799999999999997)"/><use xlink:href="#ai" transform="matrix(1,0,0,1,608,888) translate(229.42499999999998 24.799999999999997)"/><use xlink:href="#aj" transform="matrix(1,0,0,1,608,888) translate(6.475000000000023 46.4)"/><use xlink:href="#ak" transform="matrix(1,0,0,1,608,888) translate(97.12500000000003 46.4)"/><use xlink:href="#al" transform="matrix(1,0,0,1,608,888) translate(173.97500000000002 46.4)"/><use xlink:href="#am" transform="matrix(1,0,0,1,608,888) translate(267.875 46.4)"/><use xlink:href="#an" transform="matrix(1,0,0,1,608,888) translate(291.875 46.4)"/></g><path d="M1100 777.24c0-2.76 2.24-5 5-5h650c2.76 0 5 2.24 5 5v165.52c0 2.76-2.24 5-5 5h-650c-2.76 0-5-2.24-5-5z" fill="none"/><path d="M1116.9 772.24h7.92m7.92 0h7.93m7.93 0h7.92m7.93 0h7.93m7.92 0h7.93m7.93 0h7.93m7.9 0h7.94m7.93 0h7.92m7.92 0h7.93m7.92 0h7.93m7.93 0h7.92m7.93 0h7.93m7.93 0h7.93m7.93 0h7.9m7.94 0h7.93m7.93 0h7.92m7.93 0h7.93m7.92 0h7.93m7.93 0h7.92m7.93 0h7.94m7.92 0h7.93m7.92 0h7.92m7.93 0h7.93m7.92 0h7.93m7.93 0h7.92m7.93 0h7.93m7.93 0h7.9m7.94 0h7.93m7.92 0h7.92m7.93 0h7.92m7.93 0h7.93m7.92 0h7.93m7.93 0h7.93m7.93 0h7.93m7.9 0h7.94m7.93 0h7.93m7.92 0h7.93m7.93 0h7.92m7.93 0h7.93m7.92 0h7.93m7.94 0h3.96l2.95.96 1.8 2.46.25 1.58v4.14m0 8.27v8.28m0 8.28v8.28m0 8.28v8.27m0 8.28v8.3m0 8.26v8.28m0 8.27v8.3m0 8.27v8.27m0 8.28v8.27m0 8.27v8.28m0 8.27v4.14l-.96 2.95-2.46 1.8-1.58.26h-3.96m-7.93 0h-7.92m-7.92 0h-7.93m-7.93 0h-7.92m-7.93 0h-7.93m-7.92 0h-7.93m-7.93 0h-7.93m-7.9 0h-7.94m-7.93 0h-7.92m-7.92 0h-7.93m-7.92 0h-7.93m-7.93 0h-7.92m-7.93 0h-7.93m-7.93 0h-7.93m-7.93 0h-7.9m-7.94 0h-7.93m-7.93 0h-7.92m-7.93 0h-7.93m-7.92 0h-7.93m-7.93 0h-7.92m-7.93 0h-7.94m-7.92 0h-7.93m-7.92 0h-7.92m-7.93 0h-7.93m-7.92 0h-7.93m-7.93 0h-7.92m-7.93 0h-7.93m-7.93 0h-7.9m-7.94 0h-7.93m-7.92 0h-7.92m-7.93 0h-7.92m-7.93 0h-7.93m-7.92 0h-7.93m-7.93 0h-7.93m-7.93 0H1212m-7.9 0h-7.94m-7.93 0h-7.93m-7.92 0h-7.93m-7.93 0h-7.92m-7.93 0h-7.93m-7.92 0h-7.93m-7.94 0H1105l-2.95-.96-1.8-2.46-.25-1.58v-4.14m0-8.27v-8.28m0-8.28v-8.28m0-8.28v-8.27m0-8.28v-8.3m0-8.26v-8.28m0-8.27v-8.3m0-8.27v-8.27m0-8.28v-8.27m0-8.27v-8.28m0-8.27v-4.14l.96-2.95 2.46-1.8 1.58-.26h3.96" stroke="#000" stroke-width="2" fill="none"/><g><use xlink:href="#z" transform="matrix(1,0,0,1,1108,780.2388059701493) translate(0 15.6)"/><use xlink:href="#A" transform="matrix(1,0,0,1,1108,780.2388059701493) translate(26 15.6)"/><use xlink:href="#B" transform="matrix(1,0,0,1,1108,780.2388059701493) translate(93.85 15.6)"/></g><g stroke="#000" stroke-width="2" fill="#fff"><path d="M1100 900v-80h20v80zM1100 880h20m-20-20h20m-20-20h20"/></g><path d="M1002 920h48v-60h30.5" stroke="#000" stroke-width="2" fill="none"/><path d="M1002.03 921H1001v-2h1.03z"/><path d="M1095.76 860l-14.26 4.64v-9.28z" stroke="#000" stroke-width="2"/><g><use xlink:href="#ao" transform="matrix(1,0,0,1,1027.2462976070137,834.4000000000001) translate(0 14.4)"/></g><path d="M1122 860h38.5" stroke="#000" stroke-width="2" fill="none"/><path d="M1122.03 861H1121v-2h1.03z"/><path d="M1175.76 860l-14.26 4.64v-9.28z" stroke="#000" stroke-width="2"/><path d="M1196 820c-8.84 0-16 7.16-16 16v48c0 8.84 7.16 16 16 16h528c8.84 0 16-7.16 16-16v-48c0-8.84-7.16-16-16-16z" stroke="#000" stroke-width="2" fill="#fff"/><g><use xlink:href="#ag" transform="matrix(1,0,0,1,1188,828) translate(213.1 14.4)"/><use xlink:href="#ap" transform="matrix(1,0,0,1,1188,828) translate(268.05 14.4)"/><use xlink:href="#aq" transform="matrix(1,0,0,1,1188,828) translate(111.44999999999999 36)"/><use xlink:href="#ar" transform="matrix(1,0,0,1,1188,828) translate(151.39999999999998 36)"/><use xlink:href="#as" transform="matrix(1,0,0,1,1188,828) translate(166.89999999999998 36)"/><use xlink:href="#at" transform="matrix(1,0,0,1,1188,828) translate(315.55 36)"/><use xlink:href="#au" transform="matrix(1,0,0,1,1188,828) translate(121.39999999999998 57.6)"/><use xlink:href="#ar" transform="matrix(1,0,0,1,1188,828) translate(156.39999999999998 57.6)"/><use xlink:href="#av" transform="matrix(1,0,0,1,1188,828) translate(171.89999999999998 57.6)"/><use xlink:href="#aw" transform="matrix(1,0,0,1,1188,828) translate(310.54999999999995 57.6)"/></g><path d="M1420 947.76h80v20h-80zM1440 947.76v20m20-20v20m20-20v20" stroke="#000" stroke-width="2" fill="#fff"/><path d="M1460 902v26.26" stroke="#000" stroke-width="2" fill="none"/><path d="M1461 902.03h-2V901h2z"/><path d="M1460 943.53l-4.64-14.27h9.28z" stroke="#000" stroke-width="2"/><path d="M1080 1020h80v20h-80zM1100 1020v20m20-20v20m20-20v20" stroke="#000" stroke-width="2" fill="#fff"/><path d="M1460 969.76v24.12h-340v6.62" stroke="#000" stroke-width="2" fill="none"/><path d="M1461 969.8h-2v-1.04h2z"/><path d="M1120 1015.76l-4.64-14.26h9.28z" stroke="#000" stroke-width="2"/><path d="M895.2 1200h80v20h-80zM915.2 1200v20m20-20v20m20-20v20M935.2 1100l20 20-20 20-20-20z" stroke="#000" stroke-width="2" fill="#fff"/><path d="M1120 1042v78H975.12" stroke="#000" stroke-width="2" fill="none"/><path d="M1121 1042.03h-2V1041h2z"/><path d="M959.85 1120l14.27-4.64v9.28z" stroke="#000" stroke-width="2"/><path d="M180 1082v38h715.28" stroke="#000" stroke-width="2" fill="none"/><path d="M181 1082.03h-2V1081h2z"/><path d="M910.55 1120l-14.27 4.64v-9.28z" stroke="#000" stroke-width="2"/><path d="M935.2 1142.4v38.1" stroke="#000" stroke-width="2" fill="none"/><path d="M936.2 1142.44h-2v-2.03l1 1 1-1z"/><path d="M935.2 1195.76l-4.64-14.26h9.28z" stroke="#000" stroke-width="2"/><path d="M1076 1220c-8.84 0-16 7.16-16 16v48c0 8.84 7.16 16 16 16h128c8.84 0 16-7.16 16-16v-48c0-8.84-7.16-16-16-16z" stroke="#000" stroke-width="2" fill="#fff"/><g><use xlink:href="#ax" transform="matrix(1,0,0,1,1068,1228) translate(8.600000000000001 14.4)"/><use xlink:href="#ay" transform="matrix(1,0,0,1,1068,1228) translate(70.55000000000001 14.4)"/><use xlink:href="#az" transform="matrix(1,0,0,1,1068,1228) translate(27.549999999999997 36)"/><use xlink:href="#aA" transform="matrix(1,0,0,1,1068,1228) translate(53.5 36)"/><use xlink:href="#aB" transform="matrix(1,0,0,1,1068,1228) translate(102.5 36)"/><use xlink:href="#Z" transform="matrix(1,0,0,1,1068,1228) translate(32.425 57.6)"/></g><path d="M935.2 1222v38h105.3" stroke="#000" stroke-width="2" fill="none"/><path d="M936.2 1222.03h-2V1221h2z"/><path d="M1055.76 1260l-14.26 4.64v-9.28z" stroke="#000" stroke-width="2"/><path d="M1222 1260h38.5" stroke="#000" stroke-width="2" fill="none"/><path d="M1222.03 1261H1221v-2h1.03z"/><path d="M1275.76 1260l-14.26 4.64v-9.28z" stroke="#000" stroke-width="2"/><path d="M1320 1260c0 11.05-8.95 20-20 20s-20-8.95-20-20 8.95-20 20-20 20 8.95 20 20z" stroke="#000" stroke-width="2" fill="#fff"/><path d="M1312 1260c0 6.63-5.37 12-12 12s-12-5.37-12-12 5.37-12 12-12 12 5.37 12 12z" stroke="#000" stroke-width="2"/><defs><path d="M137 0h-34L2-248h35l83 218 83-218h36" id="aC"/><path d="M141-36C126-15 110 5 73 4 37 3 15-17 15-53c-1-64 63-63 125-63 3-35-9-54-41-54-24 1-41 7-42 31l-33-3c5-37 33-52 76-52 45 0 72 20 72 64v82c-1 20 7 32 28 27v20c-31 9-61-2-59-35zM48-53c0 20 12 33 32 33 41-3 63-29 60-74-43 2-92-5-92 41" id="aD"/><path d="M24 0v-261h32V0H24" id="aE"/><path d="M24-231v-30h32v30H24zM24 0v-190h32V0H24" id="aF"/><path d="M85-194c31 0 48 13 60 33l-1-100h32l1 261h-30c-2-10 0-23-3-31C134-8 116 4 85 4 32 4 16-35 15-94c0-66 23-100 70-100zm9 24c-40 0-46 34-46 75 0 40 6 74 45 74 42 0 51-32 51-76 0-42-9-74-50-73" id="aG"/><path d="M59-47c-2 24 18 29 38 22v24C64 9 27 4 27-40v-127H5v-23h24l9-43h21v43h35v23H59v120" id="aH"/><path d="M100-194c63 0 86 42 84 106H49c0 40 14 67 53 68 26 1 43-12 49-29l28 8c-11 28-37 45-77 45C44 4 14-33 15-96c1-61 26-98 85-98zm52 81c6-60-76-77-97-28-3 7-6 17-6 28h103" id="aI"/><g id="a"><use transform="matrix(0.05,0,0,0.05,0,0)" xlink:href="#aC"/><use transform="matrix(0.05,0,0,0.05,10.65,0)" xlink:href="#aD"/><use transform="matrix(0.05,0,0,0.05,20.65,0)" xlink:href="#aE"/><use transform="matrix(0.05,0,0,0.05,24.599999999999998,0)" xlink:href="#aF"/><use transform="matrix(0.05,0,0,0.05,28.549999999999997,0)" xlink:href="#aG"/><use transform="matrix(0.05,0,0,0.05,38.55,0)" xlink:href="#aD"/><use transform="matrix(0.05,0,0,0.05,48.55,0)" xlink:href="#aH"/><use transform="matrix(0.05,0,0,0.05,53.54999999999999,0)" xlink:href="#aI"/></g><path d="M234-2c-28 10-62 0-77-18C117 19 8 12 13-65c3-43 29-61 60-76-25-40-17-114 47-108 35 3 59 15 59 50 0 44-40 53-71 69 14 26 32 50 51 72 14-21 24-43 30-72l26 8c-9 33-21 57-38 82 13 13 33 22 57 15v23zM97-151c25-10 52-18 56-48-1-18-13-29-33-29-42 0-39 50-23 77zM42-66c-3 51 71 58 98 28-20-24-41-51-56-80-23 10-40 24-42 52" id="aJ"/><use transform="matrix(0.05,0,0,0.05,0,0)" xlink:href="#aJ" id="b"/><path d="M96-169c-40 0-48 33-48 73s9 75 48 75c24 0 41-14 43-38l32 2c-6 37-31 61-74 61-59 0-76-41-82-99-10-93 101-131 147-64 4 7 5 14 7 22l-32 3c-4-21-16-35-41-35" id="aK"/><path d="M100-194c62-1 85 37 85 99 1 63-27 99-86 99S16-35 15-95c0-66 28-99 85-99zM99-20c44 1 53-31 53-75 0-43-8-75-51-75s-53 32-53 75 10 74 51 75" id="aL"/><path d="M117-194c89-4 53 116 60 194h-32v-121c0-31-8-49-39-48C34-167 62-67 57 0H25l-1-190h30c1 10-1 24 2 32 11-22 29-35 61-36" id="aM"/><path d="M108 0H70L1-190h34L89-25l56-165h34" id="aN"/><path d="M114-163C36-179 61-72 57 0H25l-1-190h30c1 12-1 29 2 39 6-27 23-49 58-41v29" id="aO"/><g id="c"><use transform="matrix(0.05,0,0,0.05,0,0)" xlink:href="#aK"/><use transform="matrix(0.05,0,0,0.05,9,0)" xlink:href="#aL"/><use transform="matrix(0.05,0,0,0.05,19,0)" xlink:href="#aM"/><use transform="matrix(0.05,0,0,0.05,29,0)" xlink:href="#aN"/><use transform="matrix(0.05,0,0,0.05,38,0)" xlink:href="#aI"/><use transform="matrix(0.05,0,0,0.05,48,0)" xlink:href="#aO"/><use transform="matrix(0.05,0,0,0.05,53.95,0)" xlink:href="#aH"/></g><g id="d"><use transform="matrix(0.05,0,0,0.05,0,0)" xlink:href="#aO"/><use transform="matrix(0.05,0,0,0.05,5.95,0)" xlink:href="#aI"/><use transform="matrix(0.05,0,0,0.05,15.949999999999998,0)" xlink:href="#aK"/><use transform="matrix(0.05,0,0,0.05,24.95,0)" xlink:href="#aI"/><use transform="matrix(0.05,0,0,0.05,34.95,0)" xlink:href="#aF"/><use transform="matrix(0.05,0,0,0.05,38.900000000000006,0)" xlink:href="#aN"/><use transform="matrix(0.05,0,0,0.05,47.900000000000006,0)" xlink:href="#aI"/><use transform="matrix(0.05,0,0,0.05,57.900000000000006,0)" xlink:href="#aG"/></g><g id="e"><use transform="matrix(0.05,0,0,0.05,0,0)" xlink:href="#aG"/><use transform="matrix(0.05,0,0,0.05,10,0)" xlink:href="#aD"/><use transform="matrix(0.05,0,0,0.05,20,0)" xlink:href="#aH"/><use transform="matrix(0.05,0,0,0.05,25,0)" xlink:href="#aD"/></g><path d="M177-190C167-65 218 103 67 71c-23-6-38-20-44-43l32-5c15 47 100 32 89-28v-30C133-14 115 1 83 1 29 1 15-40 15-95c0-56 16-97 71-98 29-1 48 16 59 35 1-10 0-23 2-32h30zM94-22c36 0 50-32 50-73 0-42-14-75-50-75-39 0-46 34-46 75s6 73 46 73" id="aP"/><g id="f"><use transform="matrix(0.05,0,0,0.05,0,0)" xlink:href="#aP"/><use transform="matrix(0.05,0,0,0.05,10,0)" xlink:href="#aI"/><use transform="matrix(0.05,0,0,0.05,20,0)" xlink:href="#aH"/></g><path d="M212-179c-10-28-35-45-73-45-59 0-87 40-87 99 0 60 29 101 89 101 43 0 62-24 78-52l27 14C228-24 195 4 139 4 59 4 22-46 18-125c-6-104 99-153 187-111 19 9 31 26 39 46" id="aQ"/><path d="M30-248c87 1 191-15 191 75 0 78-77 80-158 76V0H30v-248zm33 125c57 0 124 11 124-50 0-59-68-47-124-48v98" id="aR"/><g id="g"><use transform="matrix(0.05,0,0,0.05,0,0)" xlink:href="#aQ"/><use transform="matrix(0.05,0,0,0.05,12.950000000000001,0)" xlink:href="#aD"/><use transform="matrix(0.05,0,0,0.05,22.950000000000003,0)" xlink:href="#aE"/><use transform="matrix(0.05,0,0,0.05,26.900000000000002,0)" xlink:href="#aI"/><use transform="matrix(0.05,0,0,0.05,36.900000000000006,0)" xlink:href="#aM"/><use transform="matrix(0.05,0,0,0.05,46.900000000000006,0)" xlink:href="#aG"/><use transform="matrix(0.05,0,0,0.05,56.900000000000006,0)" xlink:href="#aD"/><use transform="matrix(0.05,0,0,0.05,66.9,0)" xlink:href="#aO"/><use transform="matrix(0.05,0,0,0.05,72.85000000000001,0)" xlink:href="#aR"/><use transform="matrix(0.05,0,0,0.05,84.85000000000001,0)" xlink:href="#aO"/><use transform="matrix(0.05,0,0,0.05,90.80000000000001,0)" xlink:href="#aL"/><use transform="matrix(0.05,0,0,0.05,100.80000000000001,0)" xlink:href="#aN"/><use transform="matrix(0.05,0,0,0.05,109.80000000000001,0)" xlink:href="#aF"/><use transform="matrix(0.05,0,0,0.05,113.75,0)" xlink:href="#aG"/><use transform="matrix(0.05,0,0,0.05,123.75,0)" xlink:href="#aI"/><use transform="matrix(0.05,0,0,0.05,133.75,0)" xlink:href="#aO"/></g><path d="M210-169c-67 3-38 105-44 169h-31v-121c0-29-5-50-35-48C34-165 62-65 56 0H25l-1-190h30c1 10-1 24 2 32 10-44 99-50 107 0 11-21 27-35 58-36 85-2 47 119 55 194h-31v-121c0-29-5-49-35-48" id="aS"/><path d="M84 4C-5 8 30-112 23-190h32v120c0 31 7 50 39 49 72-2 45-101 50-169h31l1 190h-30c-1-10 1-25-2-33-11 22-28 36-60 37" id="aT"/><g id="h"><use transform="matrix(0.05,0,0,0.05,0,0)" xlink:href="#aS"/><use transform="matrix(0.05,0,0,0.05,14.950000000000001,0)" xlink:href="#aD"/><use transform="matrix(0.05,0,0,0.05,24.950000000000003,0)" xlink:href="#aM"/><use transform="matrix(0.05,0,0,0.05,34.95,0)" xlink:href="#aT"/><use transform="matrix(0.05,0,0,0.05,44.95,0)" xlink:href="#aD"/><use transform="matrix(0.05,0,0,0.05,54.95,0)" xlink:href="#aE"/></g><g id="i"><use transform="matrix(0.05,0,0,0.05,0,0)" xlink:href="#aI"/><use transform="matrix(0.05,0,0,0.05,10,0)" xlink:href="#aN"/><use transform="matrix(0.05,0,0,0.05,19,0)" xlink:href="#aI"/><use transform="matrix(0.05,0,0,0.05,29,0)" xlink:href="#aM"/><use transform="matrix(0.05,0,0,0.05,39,0)" xlink:href="#aH"/></g><g id="j"><use transform="matrix(0.05,0,0,0.05,0,0)" xlink:href="#aK"/><use transform="matrix(0.05,0,0,0.05,9,0)" xlink:href="#aO"/><use transform="matrix(0.05,0,0,0.05,14.949999999999998,0)" xlink:href="#aI"/><use transform="matrix(0.05,0,0,0.05,24.95,0)" xlink:href="#aD"/><use transform="matrix(0.05,0,0,0.05,34.95,0)" xlink:href="#aH"/><use transform="matrix(0.05,0,0,0.05,39.95,0)" xlink:href="#aI"/></g><g id="k"><use transform="matrix(0.05,0,0,0.05,0,0)" xlink:href="#aS"/><use transform="matrix(0.05,0,0,0.05,14.950000000000001,0)" xlink:href="#aD"/><use transform="matrix(0.05,0,0,0.05,24.950000000000003,0)" xlink:href="#aM"/><use transform="matrix(0.05,0,0,0.05,34.95,0)" xlink:href="#aT"/><use transform="matrix(0.05,0,0,0.05,44.95,0)" xlink:href="#aD"/><use transform="matrix(0.05,0,0,0.05,54.95,0)" xlink:href="#aE"/></g><g id="l"><use transform="matrix(0.05,0,0,0.05,0,0)" xlink:href="#aI"/><use transform="matrix(0.05,0,0,0.05,10,0)" xlink:href="#aN"/><use transform="matrix(0.05,0,0,0.05,19,0)" xlink:href="#aI"/><use transform="matrix(0.05,0,0,0.05,29,0)" xlink:href="#aM"/><use transform="matrix(0.05,0,0,0.05,39,0)" xlink:href="#aH"/></g><g id="m"><use transform="matrix(0.05,0,0,0.05,0,0)" xlink:href="#aD"/><use transform="matrix(0.05,0,0,0.05,10,0)" xlink:href="#aT"/><use transform="matrix(0.05,0,0,0.05,20,0)" xlink:href="#aH"/><use transform="matrix(0.05,0,0,0.05,25,0)" xlink:href="#aL"/></g><g id="n"><use transform="matrix(0.05,0,0,0.05,0,0)" xlink:href="#aP"/><use transform="matrix(0.05,0,0,0.05,10,0)" xlink:href="#aI"/><use transform="matrix(0.05,0,0,0.05,20,0)" xlink:href="#aH"/></g><path d="M135-143c-3-34-86-38-87 0 15 53 115 12 119 90S17 21 10-45l28-5c4 36 97 45 98 0-10-56-113-15-118-90-4-57 82-63 122-42 12 7 21 19 24 35" id="aU"/><g id="o"><use transform="matrix(0.05,0,0,0.05,0,0)" xlink:href="#aD"/><use transform="matrix(0.05,0,0,0.05,10,0)" xlink:href="#aH"/><use transform="matrix(0.05,0,0,0.05,15,0)" xlink:href="#aH"/><use transform="matrix(0.05,0,0,0.05,20,0)" xlink:href="#aI"/><use transform="matrix(0.05,0,0,0.05,30,0)" xlink:href="#aM"/><use transform="matrix(0.05,0,0,0.05,40,0)" xlink:href="#aG"/><use transform="matrix(0.05,0,0,0.05,50,0)" xlink:href="#aI"/><use transform="matrix(0.05,0,0,0.05,60,0)" xlink:href="#aI"/><use transform="matrix(0.05,0,0,0.05,70,0)" xlink:href="#aU"/></g><g id="p"><use transform="matrix(0.05,0,0,0.05,0,0)" xlink:href="#aL"/><use transform="matrix(0.05,0,0,0.05,10,0)" xlink:href="#aO"/><use transform="matrix(0.05,0,0,0.05,15.949999999999998,0)" xlink:href="#aP"/><use transform="matrix(0.05,0,0,0.05,25.950000000000003,0)" xlink:href="#aD"/><use transform="matrix(0.05,0,0,0.05,35.95,0)" xlink:href="#aM"/><use transform="matrix(0.05,0,0,0.05,45.95,0)" xlink:href="#aF"/><use transform="matrix(0.05,0,0,0.05,49.900000000000006,0)" xlink:href="#aU"/><use transform="matrix(0.05,0,0,0.05,58.900000000000006,0)" xlink:href="#aD"/><use transform="matrix(0.05,0,0,0.05,68.9,0)" xlink:href="#aH"/><use transform="matrix(0.05,0,0,0.05,73.9,0)" xlink:href="#aL"/><use transform="matrix(0.05,0,0,0.05,83.9,0)" xlink:href="#aO"/></g><path d="M101-234c-31-9-42 10-38 44h38v23H63V0H32v-167H5v-23h27c-7-52 17-82 69-68v24" id="aV"/><g id="q"><use transform="matrix(0.05,0,0,0.05,0,0)" xlink:href="#aV"/><use transform="matrix(0.05,0,0,0.05,5,0)" xlink:href="#aO"/><use transform="matrix(0.05,0,0,0.05,10.95,0)" xlink:href="#aL"/><use transform="matrix(0.05,0,0,0.05,20.95,0)" xlink:href="#aS"/></g><path d="M30-248c118-7 216 8 213 122C240-48 200 0 122 0H30v-248zM63-27c89 8 146-16 146-99s-60-101-146-95v194" id="aW"/><path d="M160-131c35 5 61 23 61 61C221 17 115-2 30 0v-248c76 3 177-17 177 60 0 33-19 50-47 57zm-97-11c50-1 110 9 110-42 0-47-63-36-110-37v79zm0 115c55-2 124 14 124-45 0-56-70-42-124-44v89" id="aX"/><g id="r"><use transform="matrix(0.05,0,0,0.05,0,0)" xlink:href="#aW"/><use transform="matrix(0.05,0,0,0.05,12.950000000000001,0)" xlink:href="#aX"/></g><path d="M115-194c53 0 69 39 70 98 0 66-23 100-70 100C84 3 66-7 56-30L54 0H23l1-261h32v101c10-23 28-34 59-34zm-8 174c40 0 45-34 45-75 0-40-5-75-45-74-42 0-51 32-51 76 0 43 10 73 51 73" id="aY"/><g id="s"><use transform="matrix(0.05,0,0,0.05,0,0)" xlink:href="#aY"/><use transform="matrix(0.05,0,0,0.05,10,0)" xlink:href="#aI"/><use transform="matrix(0.05,0,0,0.05,20,0)" xlink:href="#aU"/><use transform="matrix(0.05,0,0,0.05,29,0)" xlink:href="#aH"/></g><g id="t"><use transform="matrix(0.05,0,0,0.05,0,0)" xlink:href="#aO"/><use transform="matrix(0.05,0,0,0.05,5.95,0)" xlink:href="#aL"/><use transform="matrix(0.05,0,0,0.05,15.949999999999998,0)" xlink:href="#aL"/><use transform="matrix(0.05,0,0,0.05,25.950000000000003,0)" xlink:href="#aS"/></g><path d="M115-194c55 1 70 41 70 98S169 2 115 4C84 4 66-9 55-30l1 105H24l-1-265h31l2 30c10-21 28-34 59-34zm-8 174c40 0 45-34 45-75s-6-73-45-74c-42 0-51 32-51 76 0 43 10 73 51 73" id="aZ"/><g id="u"><use transform="matrix(0.05,0,0,0.05,0,0)" xlink:href="#aS"/><use transform="matrix(0.05,0,0,0.05,14.950000000000001,0)" xlink:href="#aD"/><use transform="matrix(0.05,0,0,0.05,24.950000000000003,0)" xlink:href="#aZ"/></g><g id="v"><use transform="matrix(0.05,0,0,0.05,0,0)" xlink:href="#aT"/><use transform="matrix(0.05,0,0,0.05,10,0)" xlink:href="#aU"/><use transform="matrix(0.05,0,0,0.05,19,0)" xlink:href="#aI"/><use transform="matrix(0.05,0,0,0.05,29,0)" xlink:href="#aO"/><use transform="matrix(0.05,0,0,0.05,34.95,0)" xlink:href="#aU"/></g><g id="w"><use transform="matrix(0.05,0,0,0.05,0,0)" xlink:href="#aH"/><use transform="matrix(0.05,0,0,0.05,5,0)" xlink:href="#aL"/></g><path d="M127-220V0H93v-220H8v-28h204v28h-85" id="ba"/><path d="M30 0v-248h187v28H63v79h144v27H63v87h162V0H30" id="bb"/><g id="x"><use transform="matrix(0.05,0,0,0.05,0,0)" xlink:href="#aT"/><use transform="matrix(0.05,0,0,0.05,10,0)" xlink:href="#aU"/><use transform="matrix(0.05,0,0,0.05,19,0)" xlink:href="#aI"/><use transform="matrix(0.05,0,0,0.05,29,0)" xlink:href="#aO"/><use transform="matrix(0.05,0,0,0.05,34.95,0)" xlink:href="#ba"/><use transform="matrix(0.05,0,0,0.05,45.25000000000001,0)" xlink:href="#aF"/><use transform="matrix(0.05,0,0,0.05,49.20000000000001,0)" xlink:href="#aS"/><use transform="matrix(0.05,0,0,0.05,64.15,0)" xlink:href="#aI"/><use transform="matrix(0.05,0,0,0.05,74.15,0)" xlink:href="#bb"/><use transform="matrix(0.05,0,0,0.05,86.15,0)" xlink:href="#aM"/><use transform="matrix(0.05,0,0,0.05,96.15,0)" xlink:href="#aH"/><use transform="matrix(0.05,0,0,0.05,101.15,0)" xlink:href="#aF"/><use transform="matrix(0.05,0,0,0.05,105.10000000000001,0)" xlink:href="#aH"/><use transform="matrix(0.05,0,0,0.05,110.10000000000001,0)" xlink:href="#aF"/><use transform="matrix(0.05,0,0,0.05,114.05000000000001,0)" xlink:href="#aI"/><use transform="matrix(0.05,0,0,0.05,124.05000000000001,0)" xlink:href="#aU"/></g><path d="M205 0l-28-72H64L36 0H1l101-248h38L239 0h-34zm-38-99l-47-123c-12 45-31 82-46 123h93" id="bc"/><path d="M232-93c-1 65-40 97-104 97C67 4 28-28 28-90v-158h33c8 89-33 224 67 224 102 0 64-133 71-224h33v155" id="bd"/><g id="y"><use transform="matrix(0.05,0,0,0.05,0,0)" xlink:href="#bc"/><use transform="matrix(0.05,0,0,0.05,12,0)" xlink:href="#aZ"/><use transform="matrix(0.05,0,0,0.05,22,0)" xlink:href="#aZ"/><use transform="matrix(0.05,0,0,0.05,32,0)" xlink:href="#bd"/><use transform="matrix(0.05,0,0,0.05,44.95,0)" xlink:href="#aU"/><use transform="matrix(0.05,0,0,0.05,53.95,0)" xlink:href="#aI"/><use transform="matrix(0.05,0,0,0.05,63.95,0)" xlink:href="#aO"/></g><path d="M18-100v-36l175-74v27L42-118l151 64v27" id="be"/><g id="z"><use transform="matrix(0.05,0,0,0.05,0,0)" xlink:href="#be"/><use transform="matrix(0.05,0,0,0.05,10.5,0)" xlink:href="#be"/></g><g id="A"><use transform="matrix(0.05,0,0,0.05,0,0)" xlink:href="#aF"/><use transform="matrix(0.05,0,0,0.05,3.95,0)" xlink:href="#aH"/><use transform="matrix(0.05,0,0,0.05,8.95,0)" xlink:href="#aI"/><use transform="matrix(0.05,0,0,0.05,18.95,0)" xlink:href="#aO"/><use transform="matrix(0.05,0,0,0.05,24.9,0)" xlink:href="#aD"/><use transform="matrix(0.05,0,0,0.05,34.9,0)" xlink:href="#aH"/><use transform="matrix(0.05,0,0,0.05,39.9,0)" xlink:href="#aF"/><use transform="matrix(0.05,0,0,0.05,43.85,0)" xlink:href="#aN"/><use transform="matrix(0.05,0,0,0.05,52.85,0)" xlink:href="#aI"/></g><path d="M18-27v-27l151-64-151-65v-27l175 74v36" id="bf"/><g id="B"><use transform="matrix(0.05,0,0,0.05,0,0)" xlink:href="#bf"/><use transform="matrix(0.05,0,0,0.05,10.5,0)" xlink:href="#bf"/></g><g id="C"><use transform="matrix(0.05,0,0,0.05,0,0)" xlink:href="#aP"/><use transform="matrix(0.05,0,0,0.05,10,0)" xlink:href="#aI"/><use transform="matrix(0.05,0,0,0.05,20,0)" xlink:href="#aH"/></g><g id="D"><use transform="matrix(0.05,0,0,0.05,0,0)" xlink:href="#aV"/><use transform="matrix(0.05,0,0,0.05,5,0)" xlink:href="#aO"/><use transform="matrix(0.05,0,0,0.05,10.95,0)" xlink:href="#aI"/><use transform="matrix(0.05,0,0,0.05,20.95,0)" xlink:href="#aI"/></g><g id="E"><use transform="matrix(0.05,0,0,0.05,0,0)" xlink:href="#aH"/><use transform="matrix(0.05,0,0,0.05,5,0)" xlink:href="#aF"/><use transform="matrix(0.05,0,0,0.05,8.95,0)" xlink:href="#aS"/><use transform="matrix(0.05,0,0,0.05,23.9,0)" xlink:href="#aI"/><use transform="matrix(0.05,0,0,0.05,33.9,0)" xlink:href="#aU"/></g><g id="F"><use transform="matrix(0.05,0,0,0.05,0,0)" xlink:href="#aV"/><use transform="matrix(0.05,0,0,0.05,5,0)" xlink:href="#aL"/><use transform="matrix(0.05,0,0,0.05,15,0)" xlink:href="#aO"/></g><path d="M206 0h-36l-40-164L89 0H53L-1-190h32L70-26l43-164h34l41 164 42-164h31" id="bg"/><path d="M143 0L79-87 56-68V0H24v-261h32v163l83-92h37l-77 82L181 0h-38" id="bh"/><path d="M197 0v-115H63V0H30v-248h33v105h134v-105h34V0h-34" id="bi"/><g id="G"><use transform="matrix(0.05,0,0,0.05,0,0)" xlink:href="#bg"/><use transform="matrix(0.05,0,0,0.05,12.950000000000001,0)" xlink:href="#aL"/><use transform="matrix(0.05,0,0,0.05,22.950000000000003,0)" xlink:href="#aO"/><use transform="matrix(0.05,0,0,0.05,28.900000000000002,0)" xlink:href="#bh"/><use transform="matrix(0.05,0,0,0.05,37.900000000000006,0)" xlink:href="#aF"/><use transform="matrix(0.05,0,0,0.05,41.85000000000001,0)" xlink:href="#aM"/><use transform="matrix(0.05,0,0,0.05,51.85,0)" xlink:href="#aP"/><use transform="matrix(0.05,0,0,0.05,61.85,0)" xlink:href="#bi"/><use transform="matrix(0.05,0,0,0.05,74.80000000000001,0)" xlink:href="#aL"/><use transform="matrix(0.05,0,0,0.05,84.80000000000001,0)" xlink:href="#aT"/><use transform="matrix(0.05,0,0,0.05,94.80000000000001,0)" xlink:href="#aO"/><use transform="matrix(0.05,0,0,0.05,100.75000000000001,0)" xlink:href="#aU"/></g><path d="M179-190L93 31C79 59 56 82 12 73V49c39 6 53-20 64-50L1-190h34L92-34l54-156h33" id="bj"/><g id="H"><use transform="matrix(0.05,0,0,0.05,0,0)" xlink:href="#aY"/><use transform="matrix(0.05,0,0,0.05,10,0)" xlink:href="#aT"/><use transform="matrix(0.05,0,0,0.05,20,0)" xlink:href="#aU"/><use transform="matrix(0.05,0,0,0.05,29,0)" xlink:href="#bj"/><use transform="matrix(0.05,0,0,0.05,38,0)" xlink:href="#ba"/><use transform="matrix(0.05,0,0,0.05,48.300000000000004,0)" xlink:href="#aF"/><use transform="matrix(0.05,0,0,0.05,52.25,0)" xlink:href="#aS"/><use transform="matrix(0.05,0,0,0.05,67.2,0)" xlink:href="#aI"/><use transform="matrix(0.05,0,0,0.05,77.2,0)" xlink:href="#aU"/></g><g id="I"><use transform="matrix(0.05,0,0,0.05,0,0)" xlink:href="#aK"/><use transform="matrix(0.05,0,0,0.05,9,0)" xlink:href="#aD"/><use transform="matrix(0.05,0,0,0.05,19,0)" xlink:href="#aE"/><use transform="matrix(0.05,0,0,0.05,22.95,0)" xlink:href="#aK"/><use transform="matrix(0.05,0,0,0.05,31.950000000000003,0)" xlink:href="#aT"/><use transform="matrix(0.05,0,0,0.05,41.95,0)" xlink:href="#aE"/><use transform="matrix(0.05,0,0,0.05,45.900000000000006,0)" xlink:href="#aD"/><use transform="matrix(0.05,0,0,0.05,55.900000000000006,0)" xlink:href="#aH"/><use transform="matrix(0.05,0,0,0.05,60.900000000000006,0)" xlink:href="#aI"/></g><g id="J"><use transform="matrix(0.05,0,0,0.05,0,0)" xlink:href="#aV"/><use transform="matrix(0.05,0,0,0.05,5,0)" xlink:href="#aO"/><use transform="matrix(0.05,0,0,0.05,10.95,0)" xlink:href="#aI"/><use transform="matrix(0.05,0,0,0.05,20.95,0)" xlink:href="#aI"/><use transform="matrix(0.05,0,0,0.05,30.950000000000003,0)" xlink:href="#aH"/><use transform="matrix(0.05,0,0,0.05,35.95,0)" xlink:href="#aF"/><use transform="matrix(0.05,0,0,0.05,39.900000000000006,0)" xlink:href="#aS"/><use transform="matrix(0.05,0,0,0.05,54.85,0)" xlink:href="#aI"/><use transform="matrix(0.05,0,0,0.05,64.85000000000001,0)" xlink:href="#aU"/></g><path d="M106-169C34-169 62-67 57 0H25v-261h32l-1 103c12-21 28-36 61-36 89 0 53 116 60 194h-32v-121c2-32-8-49-39-48" id="bk"/><g id="K"><use transform="matrix(0.05,0,0,0.05,0,0)" xlink:href="#bg"/><use transform="matrix(0.05,0,0,0.05,12.950000000000001,0)" xlink:href="#aF"/><use transform="matrix(0.05,0,0,0.05,16.900000000000002,0)" xlink:href="#aH"/><use transform="matrix(0.05,0,0,0.05,21.900000000000002,0)" xlink:href="#bk"/></g><path d="M68-38c1 34 0 65-14 84H32c9-13 17-26 17-46H33v-38h35" id="bl"/><g id="L"><use transform="matrix(0.05,0,0,0.05,0,0)" xlink:href="#bg"/><use transform="matrix(0.05,0,0,0.05,12.950000000000001,0)" xlink:href="#aL"/><use transform="matrix(0.05,0,0,0.05,22.950000000000003,0)" xlink:href="#aO"/><use transform="matrix(0.05,0,0,0.05,28.900000000000002,0)" xlink:href="#bh"/><use transform="matrix(0.05,0,0,0.05,37.900000000000006,0)" xlink:href="#aF"/><use transform="matrix(0.05,0,0,0.05,41.85000000000001,0)" xlink:href="#aM"/><use transform="matrix(0.05,0,0,0.05,51.85,0)" xlink:href="#aP"/><use transform="matrix(0.05,0,0,0.05,61.85,0)" xlink:href="#bi"/><use transform="matrix(0.05,0,0,0.05,74.80000000000001,0)" xlink:href="#aL"/><use transform="matrix(0.05,0,0,0.05,84.80000000000001,0)" xlink:href="#aT"/><use transform="matrix(0.05,0,0,0.05,94.80000000000001,0)" xlink:href="#aO"/><use transform="matrix(0.05,0,0,0.05,100.75000000000001,0)" xlink:href="#aU"/><use transform="matrix(0.05,0,0,0.05,109.75,0)" xlink:href="#bl"/></g><g id="M"><use transform="matrix(0.05,0,0,0.05,0,0)" xlink:href="#aY"/><use transform="matrix(0.05,0,0,0.05,10,0)" xlink:href="#aT"/><use transform="matrix(0.05,0,0,0.05,20,0)" xlink:href="#aU"/><use transform="matrix(0.05,0,0,0.05,29,0)" xlink:href="#bj"/><use transform="matrix(0.05,0,0,0.05,38,0)" xlink:href="#ba"/><use transform="matrix(0.05,0,0,0.05,48.300000000000004,0)" xlink:href="#aF"/><use transform="matrix(0.05,0,0,0.05,52.25,0)" xlink:href="#aS"/><use transform="matrix(0.05,0,0,0.05,67.2,0)" xlink:href="#aI"/><use transform="matrix(0.05,0,0,0.05,77.2,0)" xlink:href="#aU"/><use transform="matrix(0.05,0,0,0.05,86.2,0)" xlink:href="#bl"/></g><path d="M16-82v-28h88v28H16" id="bm"/><g id="N"><use transform="matrix(0.05,0,0,0.05,0,0)" xlink:href="#aU"/><use transform="matrix(0.05,0,0,0.05,9,0)" xlink:href="#aH"/><use transform="matrix(0.05,0,0,0.05,14,0)" xlink:href="#aD"/><use transform="matrix(0.05,0,0,0.05,24,0)" xlink:href="#aO"/><use transform="matrix(0.05,0,0,0.05,29.950000000000003,0)" xlink:href="#aH"/><use transform="matrix(0.05,0,0,0.05,34.95,0)" xlink:href="#bm"/></g><g id="O"><use transform="matrix(0.05,0,0,0.05,0,0)" xlink:href="#aD"/><use transform="matrix(0.05,0,0,0.05,10,0)" xlink:href="#aM"/><use transform="matrix(0.05,0,0,0.05,20,0)" xlink:href="#aG"/></g><g id="P"><use transform="matrix(0.05,0,0,0.05,0,0)" xlink:href="#aI"/><use transform="matrix(0.05,0,0,0.05,10,0)" xlink:href="#aM"/><use transform="matrix(0.05,0,0,0.05,20,0)" xlink:href="#aG"/><use transform="matrix(0.05,0,0,0.05,30,0)" xlink:href="#aW"/><use transform="matrix(0.05,0,0,0.05,42.95,0)" xlink:href="#aD"/><use transform="matrix(0.05,0,0,0.05,52.95,0)" xlink:href="#aH"/><use transform="matrix(0.05,0,0,0.05,57.95,0)" xlink:href="#aI"/></g><g id="Q"><use transform="matrix(0.05,0,0,0.05,0,0)" xlink:href="#aD"/><use transform="matrix(0.05,0,0,0.05,10,0)" xlink:href="#aG"/><use transform="matrix(0.05,0,0,0.05,20,0)" xlink:href="#aG"/></g><g id="R"><use transform="matrix(0.05,0,0,0.05,0,0)" xlink:href="#aU"/><use transform="matrix(0.05,0,0,0.05,9,0)" xlink:href="#aI"/><use transform="matrix(0.05,0,0,0.05,19,0)" xlink:href="#aH"/></g><g id="S"><use transform="matrix(0.05,0,0,0.05,0,0)" xlink:href="#aL"/><use transform="matrix(0.05,0,0,0.05,10,0)" xlink:href="#aV"/></g><g id="T"><use transform="matrix(0.05,0,0,0.05,0,0)" xlink:href="#aV"/><use transform="matrix(0.05,0,0,0.05,5,0)" xlink:href="#aO"/><use transform="matrix(0.05,0,0,0.05,10.95,0)" xlink:href="#aI"/><use transform="matrix(0.05,0,0,0.05,20.95,0)" xlink:href="#aI"/><use transform="matrix(0.05,0,0,0.05,30.950000000000003,0)" xlink:href="#ba"/><use transform="matrix(0.05,0,0,0.05,41.25,0)" xlink:href="#aF"/><use transform="matrix(0.05,0,0,0.05,45.2,0)" xlink:href="#aS"/><use transform="matrix(0.05,0,0,0.05,60.150000000000006,0)" xlink:href="#aI"/><use transform="matrix(0.05,0,0,0.05,70.15,0)" xlink:href="#aU"/></g><path d="M30 0v-248h33v221h125V0H30" id="bn"/><g id="U"><use transform="matrix(0.05,0,0,0.05,0,0)" xlink:href="#aO"/><use transform="matrix(0.05,0,0,0.05,5.95,0)" xlink:href="#aI"/><use transform="matrix(0.05,0,0,0.05,15.949999999999998,0)" xlink:href="#aU"/><use transform="matrix(0.05,0,0,0.05,24.95,0)" xlink:href="#aT"/><use transform="matrix(0.05,0,0,0.05,34.95,0)" xlink:href="#aE"/><use transform="matrix(0.05,0,0,0.05,38.900000000000006,0)" xlink:href="#aH"/><use transform="matrix(0.05,0,0,0.05,43.900000000000006,0)" xlink:href="#bn"/><use transform="matrix(0.05,0,0,0.05,53.900000000000006,0)" xlink:href="#aF"/><use transform="matrix(0.05,0,0,0.05,57.85,0)" xlink:href="#aU"/><use transform="matrix(0.05,0,0,0.05,66.85000000000001,0)" xlink:href="#aH"/></g><g id="V"><use transform="matrix(0.05,0,0,0.05,0,0)" xlink:href="#aV"/><use transform="matrix(0.05,0,0,0.05,5,0)" xlink:href="#aF"/><use transform="matrix(0.05,0,0,0.05,8.95,0)" xlink:href="#aO"/><use transform="matrix(0.05,0,0,0.05,14.899999999999999,0)" xlink:href="#aU"/><use transform="matrix(0.05,0,0,0.05,23.9,0)" xlink:href="#aH"/></g><g id="W"><use transform="matrix(0.05,0,0,0.05,0,0)" xlink:href="#aF"/><use transform="matrix(0.05,0,0,0.05,3.95,0)" xlink:href="#aH"/><use transform="matrix(0.05,0,0,0.05,8.95,0)" xlink:href="#aI"/><use transform="matrix(0.05,0,0,0.05,18.95,0)" xlink:href="#aO"/><use transform="matrix(0.05,0,0,0.05,24.9,0)" xlink:href="#aD"/><use transform="matrix(0.05,0,0,0.05,34.9,0)" xlink:href="#aH"/><use transform="matrix(0.05,0,0,0.05,39.9,0)" xlink:href="#aF"/><use transform="matrix(0.05,0,0,0.05,43.85,0)" xlink:href="#aL"/><use transform="matrix(0.05,0,0,0.05,53.85,0)" xlink:href="#aM"/></g><path d="M185-189c-5-48-123-54-124 2 14 75 158 14 163 119 3 78-121 87-175 55-17-10-28-26-33-46l33-7c5 56 141 63 141-1 0-78-155-14-162-118-5-82 145-84 179-34 5 7 8 16 11 25" id="bo"/><g id="X"><use transform="matrix(0.05,0,0,0.05,0,0)" xlink:href="#bo"/><use transform="matrix(0.05,0,0,0.05,12,0)" xlink:href="#aI"/><use transform="matrix(0.05,0,0,0.05,22,0)" xlink:href="#aH"/></g><g id="Y"><use transform="matrix(0.05,0,0,0.05,0,0)" xlink:href="#aL"/><use transform="matrix(0.05,0,0,0.05,10,0)" xlink:href="#aV"/></g><g id="Z"><use transform="matrix(0.05,0,0,0.05,0,0)" xlink:href="#aV"/><use transform="matrix(0.05,0,0,0.05,5,0)" xlink:href="#aO"/><use transform="matrix(0.05,0,0,0.05,10.95,0)" xlink:href="#aI"/><use transform="matrix(0.05,0,0,0.05,20.95,0)" xlink:href="#aI"/><use transform="matrix(0.05,0,0,0.05,30.950000000000003,0)" xlink:href="#ba"/><use transform="matrix(0.05,0,0,0.05,41.25,0)" xlink:href="#aF"/><use transform="matrix(0.05,0,0,0.05,45.2,0)" xlink:href="#aS"/><use transform="matrix(0.05,0,0,0.05,60.150000000000006,0)" xlink:href="#aI"/><use transform="matrix(0.05,0,0,0.05,70.15,0)" xlink:href="#aU"/></g><g id="aa"><use transform="matrix(0.05,0,0,0.05,0,0)" xlink:href="#aI"/><use transform="matrix(0.05,0,0,0.05,10,0)" xlink:href="#aE"/><use transform="matrix(0.05,0,0,0.05,13.949999999999998,0)" xlink:href="#aU"/><use transform="matrix(0.05,0,0,0.05,22.95,0)" xlink:href="#aI"/></g><g id="ab"><use transform="matrix(0.05,0,0,0.05,0,0)" xlink:href="#aV"/><use transform="matrix(0.05,0,0,0.05,5,0)" xlink:href="#aO"/><use transform="matrix(0.05,0,0,0.05,10.95,0)" xlink:href="#aI"/><use transform="matrix(0.05,0,0,0.05,20.95,0)" xlink:href="#aI"/><use transform="matrix(0.05,0,0,0.05,30.950000000000003,0)" xlink:href="#ba"/><use transform="matrix(0.05,0,0,0.05,41.25,0)" xlink:href="#aF"/><use transform="matrix(0.05,0,0,0.05,45.2,0)" xlink:href="#aS"/><use transform="matrix(0.05,0,0,0.05,60.150000000000006,0)" xlink:href="#aI"/><use transform="matrix(0.05,0,0,0.05,70.15,0)" xlink:href="#aU"/></g><g id="ac"><use transform="matrix(0.05,0,0,0.05,0,0)" xlink:href="#aV"/><use transform="matrix(0.05,0,0,0.05,5,0)" xlink:href="#aO"/><use transform="matrix(0.05,0,0,0.05,10.95,0)" xlink:href="#aI"/><use transform="matrix(0.05,0,0,0.05,20.95,0)" xlink:href="#aI"/><use transform="matrix(0.05,0,0,0.05,30.950000000000003,0)" xlink:href="#ba"/><use transform="matrix(0.05,0,0,0.05,41.25,0)" xlink:href="#aF"/><use transform="matrix(0.05,0,0,0.05,45.2,0)" xlink:href="#aS"/><use transform="matrix(0.05,0,0,0.05,60.150000000000006,0)" xlink:href="#aI"/></g><use transform="matrix(0.05,0,0,0.05,0,0)" xlink:href="#bf" id="ad"/><g id="ae"><use transform="matrix(0.05,0,0,0.05,0,0)" xlink:href="#aD"/><use transform="matrix(0.05,0,0,0.05,10,0)" xlink:href="#aM"/><use transform="matrix(0.05,0,0,0.05,20,0)" xlink:href="#bj"/></g><path d="M33 0v-248h34V0H33" id="bp"/><g id="af"><use transform="matrix(0.05,0,0,0.05,0,0)" xlink:href="#aO"/><use transform="matrix(0.05,0,0,0.05,5.95,0)" xlink:href="#aI"/><use transform="matrix(0.05,0,0,0.05,15.949999999999998,0)" xlink:href="#aU"/><use transform="matrix(0.05,0,0,0.05,24.95,0)" xlink:href="#aT"/><use transform="matrix(0.05,0,0,0.05,34.95,0)" xlink:href="#aE"/><use transform="matrix(0.05,0,0,0.05,38.900000000000006,0)" xlink:href="#aH"/><use transform="matrix(0.05,0,0,0.05,43.900000000000006,0)" xlink:href="#bp"/><use transform="matrix(0.05,0,0,0.05,48.900000000000006,0)" xlink:href="#aM"/><use transform="matrix(0.05,0,0,0.05,58.900000000000006,0)" xlink:href="#aH"/><use transform="matrix(0.05,0,0,0.05,63.900000000000006,0)" xlink:href="#aI"/><use transform="matrix(0.05,0,0,0.05,73.9,0)" xlink:href="#aO"/><use transform="matrix(0.05,0,0,0.05,79.85000000000001,0)" xlink:href="#aN"/><use transform="matrix(0.05,0,0,0.05,88.85000000000001,0)" xlink:href="#aD"/><use transform="matrix(0.05,0,0,0.05,98.85000000000001,0)" xlink:href="#aE"/></g><g id="ag"><use transform="matrix(0.05,0,0,0.05,0,0)" xlink:href="#aK"/><use transform="matrix(0.05,0,0,0.05,9,0)" xlink:href="#aO"/><use transform="matrix(0.05,0,0,0.05,14.949999999999998,0)" xlink:href="#aI"/><use transform="matrix(0.05,0,0,0.05,24.95,0)" xlink:href="#aD"/><use transform="matrix(0.05,0,0,0.05,34.95,0)" xlink:href="#aH"/><use transform="matrix(0.05,0,0,0.05,39.95,0)" xlink:href="#aI"/></g><g id="ah"><use transform="matrix(0.05,0,0,0.05,0,0)" xlink:href="#aZ"/><use transform="matrix(0.05,0,0,0.05,10,0)" xlink:href="#aD"/><use transform="matrix(0.05,0,0,0.05,20,0)" xlink:href="#aF"/><use transform="matrix(0.05,0,0,0.05,23.95,0)" xlink:href="#aO"/></g><g id="ai"><use transform="matrix(0.05,0,0,0.05,0,0)" xlink:href="#aL"/><use transform="matrix(0.05,0,0,0.05,10,0)" xlink:href="#aV"/></g><g id="aj"><use transform="matrix(0.05,0,0,0.05,0,0)" xlink:href="#be"/><use transform="matrix(0.05,0,0,0.05,10.5,0)" xlink:href="#aV"/><use transform="matrix(0.05,0,0,0.05,15.5,0)" xlink:href="#aO"/><use transform="matrix(0.05,0,0,0.05,21.45,0)" xlink:href="#aI"/><use transform="matrix(0.05,0,0,0.05,31.450000000000003,0)" xlink:href="#aI"/><use transform="matrix(0.05,0,0,0.05,41.45,0)" xlink:href="#ba"/><use transform="matrix(0.05,0,0,0.05,51.75,0)" xlink:href="#aF"/><use transform="matrix(0.05,0,0,0.05,55.70000000000002,0)" xlink:href="#aS"/><use transform="matrix(0.05,0,0,0.05,70.65,0)" xlink:href="#aI"/><use transform="matrix(0.05,0,0,0.05,80.65,0)" xlink:href="#bl"/></g><path d="M26 75v-336h71v23H56V52h41v23H26" id="bq"/><g id="ak"><use transform="matrix(0.05,0,0,0.05,0,0)" xlink:href="#bq"/><use transform="matrix(0.05,0,0,0.05,5,0)" xlink:href="#aF"/><use transform="matrix(0.05,0,0,0.05,8.95,0)" xlink:href="#aM"/><use transform="matrix(0.05,0,0,0.05,18.95,0)" xlink:href="#aH"/><use transform="matrix(0.05,0,0,0.05,23.95,0)" xlink:href="#aI"/><use transform="matrix(0.05,0,0,0.05,33.95,0)" xlink:href="#aO"/><use transform="matrix(0.05,0,0,0.05,39.900000000000006,0)" xlink:href="#aN"/><use transform="matrix(0.05,0,0,0.05,48.900000000000006,0)" xlink:href="#aD"/><use transform="matrix(0.05,0,0,0.05,58.900000000000006,0)" xlink:href="#aE"/><use transform="matrix(0.05,0,0,0.05,62.85,0)" xlink:href="#aU"/></g><g id="al"><use transform="matrix(0.05,0,0,0.05,0,0)" xlink:href="#aL"/><use transform="matrix(0.05,0,0,0.05,10,0)" xlink:href="#aN"/><use transform="matrix(0.05,0,0,0.05,19,0)" xlink:href="#aI"/><use transform="matrix(0.05,0,0,0.05,29,0)" xlink:href="#aO"/><use transform="matrix(0.05,0,0,0.05,34.95,0)" xlink:href="#aE"/><use transform="matrix(0.05,0,0,0.05,38.900000000000006,0)" xlink:href="#aD"/><use transform="matrix(0.05,0,0,0.05,48.900000000000006,0)" xlink:href="#aZ"/><use transform="matrix(0.05,0,0,0.05,58.900000000000006,0)" xlink:href="#aZ"/><use transform="matrix(0.05,0,0,0.05,68.9,0)" xlink:href="#aI"/><use transform="matrix(0.05,0,0,0.05,78.9,0)" xlink:href="#aG"/></g><g id="am"><use transform="matrix(0.05,0,0,0.05,0,0)" xlink:href="#aY"/><use transform="matrix(0.05,0,0,0.05,10,0)" xlink:href="#bj"/></g><path d="M3 75V52h41v-290H3v-23h71V75H3" id="br"/><g id="an"><use transform="matrix(0.05,0,0,0.05,0,0)" xlink:href="#aV"/><use transform="matrix(0.05,0,0,0.05,5,0)" xlink:href="#aO"/><use transform="matrix(0.05,0,0,0.05,10.95,0)" xlink:href="#aI"/><use transform="matrix(0.05,0,0,0.05,20.95,0)" xlink:href="#aI"/><use transform="matrix(0.05,0,0,0.05,30.950000000000003,0)" xlink:href="#ba"/><use transform="matrix(0.05,0,0,0.05,41.25,0)" xlink:href="#aF"/><use transform="matrix(0.05,0,0,0.05,45.2,0)" xlink:href="#aS"/><use transform="matrix(0.05,0,0,0.05,60.150000000000006,0)" xlink:href="#aI"/><use transform="matrix(0.05,0,0,0.05,70.15,0)" xlink:href="#br"/><use transform="matrix(0.05,0,0,0.05,75.15,0)" xlink:href="#bf"/></g><g id="ao"><use transform="matrix(0.05,0,0,0.05,0,0)" xlink:href="#aF"/><use transform="matrix(0.05,0,0,0.05,3.95,0)" xlink:href="#aM"/><use transform="matrix(0.05,0,0,0.05,13.949999999999998,0)" xlink:href="#aH"/><use transform="matrix(0.05,0,0,0.05,18.95,0)" xlink:href="#aI"/><use transform="matrix(0.05,0,0,0.05,28.950000000000003,0)" xlink:href="#aO"/><use transform="matrix(0.05,0,0,0.05,34.9,0)" xlink:href="#aN"/><use transform="matrix(0.05,0,0,0.05,43.9,0)" xlink:href="#aD"/><use transform="matrix(0.05,0,0,0.05,53.900000000000006,0)" xlink:href="#aE"/><use transform="matrix(0.05,0,0,0.05,57.85,0)" xlink:href="#aU"/></g><path d="M33-154v-36h34v36H33zM33 0v-36h34V0H33" id="bs"/><g id="ap"><use transform="matrix(0.05,0,0,0.05,0,0)" xlink:href="#aF"/><use transform="matrix(0.05,0,0,0.05,3.95,0)" xlink:href="#aM"/><use transform="matrix(0.05,0,0,0.05,13.949999999999998,0)" xlink:href="#aH"/><use transform="matrix(0.05,0,0,0.05,18.95,0)" xlink:href="#aI"/><use transform="matrix(0.05,0,0,0.05,28.950000000000003,0)" xlink:href="#aO"/><use transform="matrix(0.05,0,0,0.05,34.9,0)" xlink:href="#aN"/><use transform="matrix(0.05,0,0,0.05,43.9,0)" xlink:href="#aD"/><use transform="matrix(0.05,0,0,0.05,53.900000000000006,0)" xlink:href="#aE"/><use transform="matrix(0.05,0,0,0.05,57.85,0)" xlink:href="#bs"/></g><g id="aq"><use transform="matrix(0.05,0,0,0.05,0,0)" xlink:href="#aU"/><use transform="matrix(0.05,0,0,0.05,9,0)" xlink:href="#aH"/><use transform="matrix(0.05,0,0,0.05,14,0)" xlink:href="#aD"/><use transform="matrix(0.05,0,0,0.05,24,0)" xlink:href="#aO"/><use transform="matrix(0.05,0,0,0.05,29.950000000000003,0)" xlink:href="#aH"/></g><path d="M18-150v-26h174v26H18zm0 90v-26h174v26H18" id="bt"/><use transform="matrix(0.05,0,0,0.05,0,0)" xlink:href="#bt" id="ar"/><path d="M141 0L90-78 38 0H4l68-98-65-92h35l48 74 47-74h35l-64 92 68 98h-35" id="bu"/><path d="M87 75C49 33 22-17 22-94c0-76 28-126 65-167h31c-38 41-64 92-64 168S80 34 118 75H87" id="bv"/><g id="as"><use transform="matrix(0.05,0,0,0.05,0,0)" xlink:href="#aS"/><use transform="matrix(0.05,0,0,0.05,14.950000000000001,0)" xlink:href="#aD"/><use transform="matrix(0.05,0,0,0.05,24.950000000000003,0)" xlink:href="#bu"/><use transform="matrix(0.05,0,0,0.05,33.95,0)" xlink:href="#bv"/><use transform="matrix(0.05,0,0,0.05,39.900000000000006,0)" xlink:href="#aF"/><use transform="matrix(0.05,0,0,0.05,43.85000000000001,0)" xlink:href="#aM"/><use transform="matrix(0.05,0,0,0.05,53.85,0)" xlink:href="#aH"/><use transform="matrix(0.05,0,0,0.05,58.85,0)" xlink:href="#aI"/><use transform="matrix(0.05,0,0,0.05,68.85000000000001,0)" xlink:href="#aO"/><use transform="matrix(0.05,0,0,0.05,74.80000000000001,0)" xlink:href="#aN"/><use transform="matrix(0.05,0,0,0.05,83.80000000000001,0)" xlink:href="#aD"/><use transform="matrix(0.05,0,0,0.05,93.80000000000001,0)" xlink:href="#aE"/><use transform="matrix(0.05,0,0,0.05,97.75000000000001,0)" xlink:href="#bm"/><use transform="matrix(0.05,0,0,0.05,103.7,0)" xlink:href="#aU"/><use transform="matrix(0.05,0,0,0.05,112.7,0)" xlink:href="#aH"/><use transform="matrix(0.05,0,0,0.05,117.7,0)" xlink:href="#aD"/><use transform="matrix(0.05,0,0,0.05,127.7,0)" xlink:href="#aO"/><use transform="matrix(0.05,0,0,0.05,133.65,0)" xlink:href="#aH"/><use transform="matrix(0.05,0,0,0.05,138.65,0)" xlink:href="#bl"/></g><path d="M33-261c38 41 65 92 65 168S71 34 33 75H2C39 34 66-17 66-93S39-220 2-261h31" id="bw"/><g id="at"><use transform="matrix(0.05,0,0,0.05,0,0)" xlink:href="#aV"/><use transform="matrix(0.05,0,0,0.05,5,0)" xlink:href="#aO"/><use transform="matrix(0.05,0,0,0.05,10.95,0)" xlink:href="#aI"/><use transform="matrix(0.05,0,0,0.05,20.95,0)" xlink:href="#aI"/><use transform="matrix(0.05,0,0,0.05,30.950000000000003,0)" xlink:href="#ba"/><use transform="matrix(0.05,0,0,0.05,41.25,0)" xlink:href="#aF"/><use transform="matrix(0.05,0,0,0.05,45.2,0)" xlink:href="#aS"/><use transform="matrix(0.05,0,0,0.05,60.150000000000006,0)" xlink:href="#aI"/><use transform="matrix(0.05,0,0,0.05,70.15,0)" xlink:href="#bm"/><use transform="matrix(0.05,0,0,0.05,76.10000000000001,0)" xlink:href="#aU"/><use transform="matrix(0.05,0,0,0.05,85.10000000000001,0)" xlink:href="#aH"/><use transform="matrix(0.05,0,0,0.05,90.10000000000001,0)" xlink:href="#aD"/><use transform="matrix(0.05,0,0,0.05,100.10000000000001,0)" xlink:href="#aO"/><use transform="matrix(0.05,0,0,0.05,106.05000000000001,0)" xlink:href="#aH"/><use transform="matrix(0.05,0,0,0.05,111.05000000000001,0)" xlink:href="#bw"/></g><g id="au"><use transform="matrix(0.05,0,0,0.05,0,0)" xlink:href="#aI"/><use transform="matrix(0.05,0,0,0.05,10,0)" xlink:href="#aM"/><use transform="matrix(0.05,0,0,0.05,20,0)" xlink:href="#aG"/></g><g id="av"><use transform="matrix(0.05,0,0,0.05,0,0)" xlink:href="#aS"/><use transform="matrix(0.05,0,0,0.05,14.950000000000001,0)" xlink:href="#aF"/><use transform="matrix(0.05,0,0,0.05,18.900000000000002,0)" xlink:href="#aM"/><use transform="matrix(0.05,0,0,0.05,28.900000000000002,0)" xlink:href="#bv"/><use transform="matrix(0.05,0,0,0.05,34.85,0)" xlink:href="#aF"/><use transform="matrix(0.05,0,0,0.05,38.800000000000004,0)" xlink:href="#aM"/><use transform="matrix(0.05,0,0,0.05,48.800000000000004,0)" xlink:href="#aH"/><use transform="matrix(0.05,0,0,0.05,53.800000000000004,0)" xlink:href="#aI"/><use transform="matrix(0.05,0,0,0.05,63.800000000000004,0)" xlink:href="#aO"/><use transform="matrix(0.05,0,0,0.05,69.75,0)" xlink:href="#aN"/><use transform="matrix(0.05,0,0,0.05,78.75,0)" xlink:href="#aD"/><use transform="matrix(0.05,0,0,0.05,88.75,0)" xlink:href="#aE"/><use transform="matrix(0.05,0,0,0.05,92.7,0)" xlink:href="#bm"/><use transform="matrix(0.05,0,0,0.05,98.65,0)" xlink:href="#aI"/><use transform="matrix(0.05,0,0,0.05,108.65,0)" xlink:href="#aM"/><use transform="matrix(0.05,0,0,0.05,118.65,0)" xlink:href="#aG"/><use transform="matrix(0.05,0,0,0.05,128.65,0)" xlink:href="#bl"/></g><g id="aw"><use transform="matrix(0.05,0,0,0.05,0,0)" xlink:href="#aV"/><use transform="matrix(0.05,0,0,0.05,5,0)" xlink:href="#aO"/><use transform="matrix(0.05,0,0,0.05,10.95,0)" xlink:href="#aI"/><use transform="matrix(0.05,0,0,0.05,20.95,0)" xlink:href="#aI"/><use transform="matrix(0.05,0,0,0.05,30.950000000000003,0)" xlink:href="#ba"/><use transform="matrix(0.05,0,0,0.05,41.25,0)" xlink:href="#aF"/><use transform="matrix(0.05,0,0,0.05,45.2,0)" xlink:href="#aS"/><use transform="matrix(0.05,0,0,0.05,60.150000000000006,0)" xlink:href="#aI"/><use transform="matrix(0.05,0,0,0.05,70.15,0)" xlink:href="#bm"/><use transform="matrix(0.05,0,0,0.05,76.10000000000001,0)" xlink:href="#aI"/><use transform="matrix(0.05,0,0,0.05,86.10000000000001,0)" xlink:href="#aM"/><use transform="matrix(0.05,0,0,0.05,96.10000000000001,0)" xlink:href="#aG"/><use transform="matrix(0.05,0,0,0.05,106.10000000000001,0)" xlink:href="#bw"/></g><g id="ax"><use transform="matrix(0.05,0,0,0.05,0,0)" xlink:href="#bo"/><use transform="matrix(0.05,0,0,0.05,12,0)" xlink:href="#aI"/><use transform="matrix(0.05,0,0,0.05,22,0)" xlink:href="#aD"/><use transform="matrix(0.05,0,0,0.05,32,0)" xlink:href="#aO"/><use transform="matrix(0.05,0,0,0.05,37.95,0)" xlink:href="#aK"/><use transform="matrix(0.05,0,0,0.05,46.95,0)" xlink:href="#bk"/></g><g id="ay"><use transform="matrix(0.05,0,0,0.05,0,0)" xlink:href="#aH"/><use transform="matrix(0.05,0,0,0.05,5,0)" xlink:href="#aF"/><use transform="matrix(0.05,0,0,0.05,8.95,0)" xlink:href="#aS"/><use transform="matrix(0.05,0,0,0.05,23.9,0)" xlink:href="#aI"/><use transform="matrix(0.05,0,0,0.05,33.9,0)" xlink:href="#bo"/><use transform="matrix(0.05,0,0,0.05,45.9,0)" xlink:href="#aE"/><use transform="matrix(0.05,0,0,0.05,49.85,0)" xlink:href="#aL"/><use transform="matrix(0.05,0,0,0.05,59.85,0)" xlink:href="#aH"/></g><g id="az"><use transform="matrix(0.05,0,0,0.05,0,0)" xlink:href="#aV"/><use transform="matrix(0.05,0,0,0.05,5,0)" xlink:href="#aL"/><use transform="matrix(0.05,0,0,0.05,15,0)" xlink:href="#aO"/></g><g id="aA"><use transform="matrix(0.05,0,0,0.05,0,0)" xlink:href="#aI"/><use transform="matrix(0.05,0,0,0.05,10,0)" xlink:href="#aN"/><use transform="matrix(0.05,0,0,0.05,19,0)" xlink:href="#aI"/><use transform="matrix(0.05,0,0,0.05,29,0)" xlink:href="#aM"/><use transform="matrix(0.05,0,0,0.05,39,0)" xlink:href="#aH"/></g><g id="aB"><use transform="matrix(0.05,0,0,0.05,0,0)" xlink:href="#aF"/><use transform="matrix(0.05,0,0,0.05,3.95,0)" xlink:href="#aM"/></g></defs></g></svg>